<svg id="Layer_1" data-name="Layer 1" xmlns="http://www.w3.org/2000/svg" viewBox="0 0 249.25 305"><defs><style>.cls-1{fill:#fff;}</style></defs><path class="cls-1" d="M40.74,112.12C15,156.86,31.34,224.77,59.86,265.94,74.09,286.52,88.5,305,108.24,305l1.13,0c9.27-.37,16-3.23,22.45-6,7.27-3.1,14.8-6.3,26.6-6.3,11.22,0,18.39,3.1,25.31,6.1s13.87,6,24.26,5.81c22.23-.41,35.88-20.35,47.92-37.94a168,168,0,0,0,21-43l.09-.27a2.5,2.5,0,0,0-1.33-3.06l-.19-.08c-3.91-1.6-38.25-16.84-38.61-58.36-.34-33.74,25.76-51.6,31-54.84l.25-.15a2.53,2.53,0,0,0,1.09-1.61,2.49,2.49,0,0,0-.38-1.91C250.8,77,223.19,73,212.08,72.56c-1.62-.16-3.28-.24-5-.24-13.06,0-25.57,4.93-35.61,8.89-6.94,2.74-12.93,5.1-17.06,5.1-4.65,0-10.67-2.39-17.65-5.16-9.33-3.7-19.9-7.9-31.1-7.9h-.79C78.89,73.64,54.3,88.54,40.74,112.12Z" transform="translate(-27.88 0)"/><path class="cls-1" d="M212.1,0c-15.76.64-34.67,10.35-46,23.59-9.61,11.12-19,29.67-16.52,48.37a2.51,2.51,0,0,0,2.28,2.17q1.61.12,3.24.12c15.41,0,32-8.52,43.39-22.25,11.95-14.5,18-33.11,16.17-49.77A2.52,2.52,0,0,0,212.1,0Z" transform="translate(-27.88 0)"/></svg>