<svg id="Layer_1" data-name="Layer 1" xmlns="http://www.w3.org/2000/svg" viewBox="0 0 76.33 76.83"><defs><style>.cls-1{fill:#fff;}</style></defs><path id="Balloon-icon-SVG-pso3sf" class="cls-1" d="M44.69,76.44a1.17,1.17,0,0,1,.1-1.64c3.3-2.9,3-4.39,2.59-6.65-.09-.5-.18-1-.24-1.61a6.52,6.52,0,0,1-2.47-1.84,1.14,1.14,0,0,1-.14-1.25l1.12-2.28a19,19,0,0,0,7.87,1.61l.12,2.58a1.18,1.18,0,0,1-.64,1.1,6.58,6.58,0,0,1-3,.69l-.46,0c0,.2.07.39.11.59.47,2.49,1,5.06-3.34,8.84a1.18,1.18,0,0,1-.77.29A1.21,1.21,0,0,1,44.69,76.44Zm-14.84.1a1.16,1.16,0,0,1-.1-1.64h0c4-4.51,2.75-6.15.87-8.64a15.84,15.84,0,0,1-2-3.19,7.49,7.49,0,0,1-3.27-.94A1.14,1.14,0,0,1,24.8,61l.32-3.45a10.87,10.87,0,0,0,1.14,0,22.74,22.74,0,0,0,7.56-1.45l1.39,3.18a1.19,1.19,0,0,1-.2,1.25,7.69,7.69,0,0,1-3.89,2.26,17.16,17.16,0,0,0,1.36,2c2,2.65,4.27,5.66-1,11.59a1.16,1.16,0,0,1-1.64.1h0ZM46.4,59.63a18.54,18.54,0,0,1-7.08-7.06c14.62-14.2,9.3-37,9-38.29a22.71,22.71,0,0,1,11.43-.45,21.49,21.49,0,0,1,13.18,8c3.16,4.34,4.15,9.83,2.88,15.87-2.35,11.18-11.92,22.49-22,23.35A17.72,17.72,0,0,1,46.4,59.63ZM61.78,23.18a1.17,1.17,0,0,0,.41,1.59h0c4.36,2.55,6.23,7.09,5.1,12.43A20,20,0,0,1,65.57,42a1.17,1.17,0,0,0,.52,1.57h0a1.16,1.16,0,0,0,1.56-.52,21.93,21.93,0,0,0,1.92-5.37c1.35-6.39-.91-11.83-6.2-14.93a1.16,1.16,0,0,0-1.59.42ZM25.29,55.86h0C13.39,54.73,2.53,40.7.37,27.28-.77,20.18.7,13.85,4.62,9c3.6-4.49,9.21-7.54,15.8-8.59S33.3.47,38.12,3.61a21.36,21.36,0,0,1,8.53,11.2h0c.48,2,5,23-8.31,36.31a19,19,0,0,1-5.17,3.46,21.29,21.29,0,0,1-6.93,1.32C25.81,55.9,25.49,55.88,25.29,55.86ZM26.78,9.61a1.16,1.16,0,0,0,1,1.33h0c6,1,10,5.23,11,11.66a23.65,23.65,0,0,1,.14,6.06,1.15,1.15,0,0,0,1,1.27H40a1.16,1.16,0,0,0,1.15-1.05A25.62,25.62,0,0,0,41,22.23C39.84,14.75,35.13,9.8,28.12,8.64a1.17,1.17,0,0,0-1.34,1Z" transform="translate(0 0)"/></svg>