<?xml version="1.0" encoding="UTF-8"?>
<svg id="Layer_1" data-name="Layer 1" xmlns="http://www.w3.org/2000/svg" viewBox="0 0 288.02 336.19">
  <defs>
    <style>
      .cls-1 {
        fill: #fff;
      }
    </style>
  </defs>
  <path class="cls-1" d="m72.01,108.13c0-12.4-.29-24.38.06-36.34.84-28.99,14.11-50.79,39.86-63.98,47.02-24.07,103.46,10.41,104.1,63.21.15,12.22.02,24.45.02,37.11,1.63,0,2.96,0,4.29,0,18,0,36-.01,54.01,0,9.69,0,14.66,5.87,13.5,15.4-3.51,28.76-6.85,57.54-10.3,86.31-3.43,28.64-6.65,57.32-10.46,85.91-3.01,22.55-22.66,39.64-45.41,40.37-.87.03-1.75.05-2.62.05-50.01,0-100.01.05-150.02-.02-23.54-.03-42.88-15.13-47.59-37.82-2.18-10.48-2.89-21.27-4.18-31.93-3.19-26.54-6.33-53.08-9.49-79.62C5.21,165.21,2.57,143.64.1,122.05c-.92-8.04,4.4-13.87,12.49-13.9,18.25-.06,36.5-.02,54.76-.02,1.37,0,2.73,0,4.67,0Zm119.4-.14c0-14.72,1.19-29.18-.27-43.37-2.39-23.1-23.56-40.5-47.08-40.5-23.54,0-44.54,17.32-47.16,40.46-1.51,13.34-.67,26.94-.87,40.42-.01.96.12,1.92.2,3h95.18Zm-95.4,36.11c-.02-6.51-5.42-11.93-11.94-11.96-6.71-.03-12.16,5.49-12.05,12.2.11,6.5,5.6,11.85,12.12,11.78,6.52-.06,11.89-5.5,11.87-12.03Zm107.75,12.03c6.52.16,12.09-5.09,12.3-11.59.21-6.52-5.01-12.13-11.5-12.39-6.71-.26-12.37,5.07-12.48,11.76-.11,6.51,5.19,12.06,11.68,12.22Z"/>
</svg>