<?xml version="1.0" encoding="UTF-8"?>
<svg id="Layer_1" data-name="Layer 1" xmlns="http://www.w3.org/2000/svg" viewBox="0 0 288.03 336.19">
  <defs>
    <style>
      .cls-1 {
        fill: #fff;
      }
    </style>
  </defs>
  <path class="cls-1" d="m216.04,96.13c1.87,0,3.23,0,4.59,0,18.25,0,36.51-.04,54.76.02,8.12.03,13.41,5.78,12.55,13.84-2.23,20.87-4.62,41.72-6.95,62.57-2.64,23.71-5.27,47.43-7.94,71.14-1.95,17.38-3.66,34.79-6.01,52.11-2.99,22.11-22.43,39.34-44.74,40.28-1.12.05-2.25.07-3.37.07-50.01,0-100.02.05-150.03-.02-23.47-.03-42.98-15.31-47.49-37.94-2.24-11.23-2.9-22.78-4.19-34.2-2.92-25.94-5.79-51.89-8.68-77.84C5.72,160.84,2.85,135.52.1,110.18c-.9-8.26,4.38-14.02,12.73-14.04,18.25-.05,36.51-.01,54.76-.01,1.34,0,2.69,0,4.41,0,0-8.3-.24-16.28.04-24.23,1.07-30.59,15.38-52.96,43.18-65.62,43.54-19.82,94.75,9.43,100.07,56.84,1.03,9.15.55,18.46.75,27.7.04,1.6,0,3.21,0,5.3Zm-24.29,47.82v-23.62h-95.57v23.55c1.28.32,2.38.54,3.45.88,5.48,1.78,8.97,7.16,8.3,12.76-.66,5.59-5.31,10.35-11,10.51-8.62.25-17.26.25-25.88,0-5.67-.16-10.35-4.94-11-10.51-.66-5.67,2.75-10.95,8.28-12.75,1.15-.37,2.33-.63,3.36-.91v-23.55H25.45c.36,3.53.67,6.85,1.04,10.17,2.89,25.95,5.82,51.89,8.7,77.84,3.06,27.56,6,55.14,9.19,82.69,1.42,12.26,11.47,21.1,23.84,21.12,50.51.07,101.02.07,151.54,0,12.39-.02,22.4-8.76,23.87-21.09,2.73-22.95,5.13-45.93,7.68-68.9,2.88-25.95,5.79-51.89,8.68-77.84.88-7.92,1.73-15.84,2.62-23.98h-46.39v23.64c.66.11,1.15.17,1.64.29,6.71,1.57,10.85,7,10.12,13.25-.73,6.28-5.9,10.59-12.85,10.63-7.63.04-15.25.07-22.88-.02-5.96-.07-10.67-3.89-11.95-9.47-1.61-7.04,2.95-12.94,11.46-14.7Zm.28-47.98c0-8.42.07-16.41-.01-24.4-.27-24.77-19.74-45.55-44.33-47.36-25.1-1.85-47.62,15.84-50.94,40.82-1.22,9.22-.56,18.7-.73,28.06-.02.95.16,1.9.25,2.88h95.77Z"/>
</svg>