<?xml version="1.0" encoding="utf-8"?>
<!-- Generator: Adobe Illustrator 27.2.0, SVG Export Plug-In . SVG Version: 6.00 Build 0)  -->
<svg version="1.1" id="Layer_1" xmlns="http://www.w3.org/2000/svg" xmlns:xlink="http://www.w3.org/1999/xlink" x="0px" y="0px"
	 viewBox="0 0 256 256" style="enable-background:new 0 0 256 256;" xml:space="preserve">
<style type="text/css">
	.st0{fill:#FFFFFF;stroke:#FFFFFF;stroke-width:2.560000e-03;stroke-miterlimit:42.6667;}
</style>
<g id="SVGRepo_bgCarrier">
</g>
<g id="SVGRepo_tracerCarrier">
</g>
<g id="SVGRepo_iconCarrier">
	<path class="st0" d="M231.1,176.5v30.3c0,23.4-19,42.5-42.5,42.5H67.3c-23.4,0-42.5-19-42.5-42.5V199c0-19,15.5-34.6,34.6-34.6H219
		C225.7,164.4,231.1,169.9,231.1,176.5z"/>
	<path class="st0" d="M170.5,6.7H85.5C37,6.7,24.9,18.8,24.9,67.3v92c9.2-8.1,21.4-13.1,34.6-13.1H219c6.7,0,12.1-5.5,12.1-12.1
		V67.3C231.1,18.8,219,6.7,170.5,6.7z M140.1,112.8H79.5c-5,0-9.1-4.1-9.1-9.1s4.1-9.1,9.1-9.1h60.7c5,0,9.1,4.1,9.1,9.1
		S145.1,112.8,140.1,112.8z M176.5,70.4H79.5c-5,0-9.1-4.1-9.1-9.1s4.1-9.1,9.1-9.1h97.1c5,0,9.1,4.1,9.1,9.1S181.5,70.4,176.5,70.4
		z"/>
</g>
</svg>
