<?xml version="1.0" encoding="UTF-8"?>
<svg id="Layer_1" data-name="Layer 1" xmlns="http://www.w3.org/2000/svg" viewBox="0 0 352.2 352.33">
  <defs>
    <style>
      .cls-1 {
        fill: #fff;
      }
    </style>
  </defs>
  <path class="cls-1" d="m176.15,288.03c-31.74,0-63.48.11-95.23-.03-39.18-.17-70.96-25.74-79.06-63.68-1.24-5.82-1.73-11.89-1.75-17.85C-.03,164.85-.02,123.24.05,81.62.12,40.31,27.61,7.86,68.31,1.02c4.17-.7,8.46-.94,12.69-.95,63.36-.06,126.72-.12,190.08-.01,39.24.07,71.24,25.91,79.29,63.97,1.21,5.7,1.69,11.65,1.71,17.48.14,41.74.15,83.48.05,125.22-.09,38.52-24.6,70.17-61.48,79.03-6.72,1.61-13.84,2.12-20.78,2.17-31.24.22-62.48.1-93.73.1Zm.33-127.87c-15.5,0-31,0-46.49,0-16.87,0-33.75-.09-50.62.09-7.8.08-14.21,6.15-15.06,13.59-.94,8.22,3.62,15.44,11.37,17.53,2.36.64,4.94.64,7.42.64,61.99.03,123.98.03,185.97.02,1.62,0,3.26.02,4.87-.13,7.38-.67,13.47-6.92,14-14.3.72-10.16-6.25-17.41-16.98-17.42-31.5-.04-62.99-.02-94.49-.02Zm-48.75-32.06c15.75,0,31.5.02,47.25,0,9.98-.02,17.04-6.69,17.04-16,0-9.31-7-16.01-17.04-16.03-31.25-.06-62.5-.07-93.74.06-2.78.01-5.78.66-8.29,1.83-6.77,3.15-10.1,10.65-8.41,17.88,1.64,7.06,8.02,12.2,15.58,12.24,15.87.09,31.75.03,47.62.03Z"/>
  <path class="cls-1" d="m176.48,320.09c31.75,0,63.49-.02,95.24.02,7.2,0,13.03,4.08,15.37,10.47,2.29,6.26.67,13.74-4.78,17.56-3,2.1-6.96,3.07-10.64,3.88-2.74.6-5.72.13-8.6.13-59.99,0-119.99.02-179.98-.05-2.83,0-5.81-.24-8.46-1.12-7.34-2.44-11.39-9.64-10.29-17.52,1.01-7.19,7.5-12.97,15.01-13.34,1.25-.06,2.5-.03,3.75-.03,31.12,0,62.24,0,93.37,0Z"/>
</svg>