<?xml version="1.0" encoding="UTF-8"?>
<svg id="Layer_1" data-name="Layer 1" xmlns="http://www.w3.org/2000/svg" viewBox="0 0 384 340.96">
  <defs>
    <style>
      .cls-1 {
        fill: #fff;
      }
    </style>
  </defs>
  <path class="cls-1" d="m0,108.28c.88-3.99,1.57-8.04,2.66-11.97,8.91-32.32,37.5-54.93,71.11-55.27,42.12-.42,84.24-.15,126.36-.1,9.05.01,15.82,6.73,15.71,15.17-.11,8.55-6.75,14.77-16.01,14.78-41.25.04-82.49-.02-123.74.03-23.7.03-42.06,15.85-45.69,39.26-.36,2.33-.4,4.73-.4,7.1-.02,58.88.02,117.75-.06,176.63,0,7.19,2.36,12.84,9.1,15.78,6.57,2.86,12.33.94,17.5-3.84,7.25-6.7,14.76-13.12,22.02-19.82,3.91-3.6,8.33-5.14,13.61-5.13,51.99.06,103.99.08,155.98.02,22.06-.02,39.48-13.71,44.62-35,.81-3.36,1.12-6.91,1.17-10.38.15-10.75.02-21.5.06-32.25.03-9.12,6.36-15.86,14.87-15.95,8.62-.09,15.17,6.75,15.09,16.09-.12,14.11.45,28.31-.84,42.32-2.94,32.03-30.63,60.06-62.48,64.28-4.69.62-9.46.87-14.19.88-48.5.06-96.99.07-145.49-.03-3.59,0-6.32.83-8.99,3.38-5.87,5.61-11.92,11.06-18.19,16.21-26.85,22.06-66.62,7.54-73.09-26.59-.13-.71-.47-1.38-.71-2.07,0-64.51,0-129.01,0-193.52Z"/>
  <path class="cls-1" d="m384,50.52c-1.05,3.69-1.51,7.7-3.29,11-2.93,5.44-5.98,11.14-10.26,15.47-36.29,36.7-72.78,73.21-109.4,109.58-22.46,22.3-49.69,33.76-81.41,34.31-10.53.18-16.79-6.29-16.52-16.79.81-32.26,12.82-59.65,35.62-82.42,35.63-35.6,71.26-71.19,106.82-106.87,13.05-13.1,28.55-17.96,46.22-12.74,17.86,5.28,28.33,17.88,31.65,36.3.06.33.37.61.57.91v11.25Zm-189.34,138.76c1.22-.18,1.81-.23,2.38-.36,16.11-3.61,30.22-11.04,41.91-22.68,36.73-36.58,73.37-73.26,109.99-109.95,6.55-6.56,6.74-15.65.71-21.75-6.07-6.14-15.42-5.9-22.02.7-36.58,36.56-73.16,73.12-109.68,109.74-10.06,10.09-17.02,22.1-21.17,35.72-.82,2.68-1.36,5.45-2.13,8.59Z"/>
  <path class="cls-1" d="m97.51,160.91c-7.36,0-14.73.07-22.09-.02-8.74-.1-15.22-6.28-15.4-14.54-.19-8.39,6.27-15.26,15.01-15.37,14.97-.19,29.95-.19,44.93,0,8.77.11,15.22,6.96,15.03,15.36-.18,8.26-6.66,14.4-15.39,14.57-.25,0-.5,0-.75,0-7.11,0-14.23,0-21.34,0Z"/>
  <path class="cls-1" d="m97.4,220.92c-7.24,0-14.48.05-21.71-.01-9-.08-15.54-6.25-15.67-14.65-.14-8.52,6.49-15.22,15.5-15.29,14.6-.12,29.2-.11,43.8,0,9.09.06,15.73,6.6,15.68,15.13-.05,8.56-6.65,14.76-15.88,14.83-7.24.05-14.48.01-21.71.01Z"/>
</svg>