<svg id="Layer_1" data-name="Layer 1" xmlns="http://www.w3.org/2000/svg" viewBox="0 0 111.27 130.37"><defs><style>.cls-1{fill:#fff;}</style></defs><path class="cls-1" d="M76.16,67.1c.56-2.24,1.09-4.37,1.66-6.69,2.2.39,4.44.74,6.65,1.2,6.68,1.4,13.21,3.23,19.12,6.78a18.18,18.18,0,0,1,6.07,5.53,9.77,9.77,0,0,1,1.66,5.54v32.88a8,8,0,0,1-2.82,6.33,29.57,29.57,0,0,1-10,5.53,105.08,105.08,0,0,1-25.41,5.3,172.65,172.65,0,0,1-32.47.21c-9.9-.86-19.68-2.39-29-6a27.63,27.63,0,0,1-8.69-5A8,8,0,0,1,.06,112.4c.07-10.36.2-20.72,0-31.08C-.07,75.84,2.31,72.1,6.59,69.2A47.52,47.52,0,0,1,22,62.78c3.71-.93,7.48-1.64,11.26-2.45l1.15,6.87c-.55.11-1.2.25-1.84.36-6.6,1.13-13.11,2.6-19.14,5.64A22.68,22.68,0,0,0,8.7,76.4c-2.31,2-2.24,3.71,0,5.88a21.69,21.69,0,0,0,7.05,4.24c7.61,3.14,15.62,4.61,23.75,5.5a149.28,149.28,0,0,0,29.59.28c9.1-.81,18.11-2.21,26.59-5.81a31.48,31.48,0,0,0,7-4.14c2.56-2,2.45-3.88.06-6.1a24.93,24.93,0,0,0-8.3-4.69,81.36,81.36,0,0,0-16.83-4.22Z" transform="translate(-0.05 0)"/><path class="cls-1" d="M59.32,77.16c4.19-6.25,3.92-12.78,2.77-19.4a67.43,67.43,0,0,0-4.75-15.31c-.1-.24-.26-.46-.53-.94-1,2.07-1.9,3.92-2.74,5.8a56.25,56.25,0,0,0-5,17.45,24.24,24.24,0,0,0,1.51,11.95c-.41-.09-.7-.13-1-.22-7.23-2.57-11.36-8.6-11.47-16.84A34.07,34.07,0,0,1,41.47,44.8c2.26-4.9,4.76-9.69,6.9-14.64,4.14-9.58,3.34-19-1.24-28.26-.19-.39-.4-.78-.6-1.17-.06-.14-.11-.29-.28-.73.52.34.83.53,1.13.75C55.9,7,61.74,15.35,65.92,24.92a85.77,85.77,0,0,1,7,26.54c.55,5.94.06,11.77-3,17.08a18.42,18.42,0,0,1-9.25,8.18A13,13,0,0,1,59.32,77.16Z" transform="translate(-0.05 0)"/><path class="cls-1" d="M53,76.81V72.38c0-1,.37-1.45,1.41-1.47,2.61-.06,2.64-.06,2.64,2.61V81.1c0,1.56-.22,1.76-1.83,1.77h-.83c-1,0-1.4-.4-1.39-1.36C53.05,79.92,53,78.36,53,76.81Z" transform="translate(-0.05 0)"/></svg>