<?xml version="1.0" encoding="UTF-8"?>
<svg id="Layer_1" data-name="Layer 1" xmlns="http://www.w3.org/2000/svg" viewBox="0 0 512 512">
  <defs>
    <style>
      .cls-1 {
        fill: #fff;
      }
    </style>
  </defs>
  <path class="cls-1" d="m182,0c9,0,18,0,27,0,1.27.29,2.53.66,3.82.87,9.68,1.59,19.52,2.48,29.02,4.81,120.51,29.59,183.16,161.6,130.14,273.86-48,101.61-174.05,141.81-271.68,86.56-3.05-1.72-5.69-1.87-8.9-.97-28.19,7.89-56.42,15.68-84.63,23.49-1.8.5-3.63.89-6.01,1.46,8.47-30.54,16.63-60.2,24.97-89.82,1.07-3.78.71-6.75-1.27-10.26-9.15-16.17-15.87-33.36-19.58-51.59-1.98-9.73-3.28-19.6-4.89-29.41,0-9,0-18,0-27,.99-6.72,1.9-13.45,2.99-20.16C15.25,86.03,76.44,21.42,151.62,5.1c10.02-2.18,20.25-3.42,30.38-5.1Zm28.5,240.74c0-6.62-.27-12.79.14-18.92.15-2.35,1.27-5.18,2.93-6.79,7.51-7.32,15.5-14.15,23.09-21.4,21.68-20.7,25.02-53.85,8-77.93-17.54-24.83-49.59-32.71-76.77-18.88-19.7,10.02-33.49,32.73-31.92,52.89h29.36c.22-1.54.42-2.84.6-4.14,1.93-13.89,13.92-24.85,27.91-25.51,12.41-.59,23.88,6.36,28.96,17.55,5.17,11.4,2.94,24.77-6.28,33.62-10.69,10.27-21.8,20.1-32.64,30.21-1.37,1.28-3.15,3.1-3.18,4.7-.27,11.44-.15,22.9-.15,34.61h29.96Zm-29.6,30.55v29.43h29.2v-29.43h-29.2Z"/>
  <path class="cls-1" d="m334,512c-10.59-2.02-21.41-3.24-31.73-6.2-44.72-12.81-78.4-39.83-101.22-80.37-.71-1.26-1.23-2.62-2.03-4.32,60.77-2.07,112.99-23.61,155.73-66.36,42.74-42.75,64.25-94.99,66.35-155.86,12.15,5.92,22.86,13.12,32.63,21.66,33.28,29.09,52.63,65.53,57.38,109.59.14,1.3.58,2.57.88,3.85v25c-.3,1.28-.74,2.55-.87,3.85-2.17,22.66-8.8,43.94-19.95,63.75-1.71,3.04-1.89,5.65-.98,8.87,6.59,23.34,13.05,46.72,19.52,70.09.46,1.66.76,3.37,1.22,5.44-1.25-.26-1.89-.36-2.5-.53-23.86-6.59-47.75-13.08-71.55-19.89-4.32-1.23-7.58-.51-11.65,1.24-12.93,5.56-26.02,10.89-39.41,15.14-8.61,2.73-17.87,3.42-26.84,5.02h-25Z"/>
  <path class="cls-1" d="m359,512c8.97-1.6,18.23-2.29,26.84-5.02,13.4-4.25,26.49-9.59,39.41-15.14,4.07-1.75,7.33-2.47,11.65-1.24,23.8,6.81,47.69,13.3,71.55,19.89.62.17,1.25.27,2.5.53-.46-2.07-.76-3.77-1.22-5.44-6.48-23.37-12.94-46.75-19.52-70.09-.91-3.22-.73-5.84.98-8.87,11.15-19.82,17.77-41.1,19.95-63.75.12-1.3.57-2.57.87-3.85v153h-153Z"/>
</svg>