<?xml version="1.0" encoding="UTF-8"?>
<svg id="Layer_1" data-name="Layer 1" xmlns="http://www.w3.org/2000/svg" viewBox="0 0 512 512">
  <defs>
    <style>
      .cls-1 {
        fill: #fff;
      }
    </style>
  </defs>
  <path class="cls-1" d="m0,209C0,200,0,191,0,182c1.67-10.14,2.54-20.5,5.15-30.39C25.66,74.02,74.83,24.96,152.62,4.98c9.59-2.46,19.58-3.36,29.38-4.98,9,0,18,0,27,0,1.27.29,2.53.74,3.82.85,23.14,1.92,45.38,7.54,66.08,18,66.42,33.59,103.88,87.4,111.26,161.67.48,4.85,2.05,6.9,6.74,8.5,55.67,19.03,91.98,56.98,108.87,113.24,3.08,10.28,4.2,21.14,6.23,31.73v25c-.3,1.28-.74,2.55-.87,3.85-2.17,22.66-8.8,43.94-19.95,63.75-1.71,3.04-1.89,5.66-.98,8.88,6.59,23.34,13.05,46.72,19.52,70.1.46,1.66.76,3.37,1.22,5.43-1.25-.26-1.89-.36-2.51-.53-23.86-6.59-47.75-13.08-71.55-19.89-4.32-1.23-7.58-.51-11.65,1.24-12.93,5.56-26.01,10.89-39.41,15.14-8.61,2.73-17.87,3.42-26.84,5.02h-25c-1.28-.3-2.54-.76-3.84-.88-65.66-6.28-121.87-52.03-141.61-115.52-1.13-3.63-2.7-4.92-6.43-5.17-29.68-1.99-57.48-10.33-83.41-24.97-1.6-.9-4.15-.96-6.01-.46-17.83,4.76-35.6,9.74-53.39,14.64-12.59,3.47-25.18,6.92-38.36,10.54.52-2.28.81-3.86,1.24-5.41,7.7-27.88,15.33-55.79,23.24-83.61,1.23-4.31,1.02-7.64-1.24-11.64-9.06-16.01-15.65-33.06-19.32-51.12C2.91,228.67,1.61,218.8,0,209Zm43.82,138.06c1.53-.36,2.3-.51,3.05-.72,16.2-4.46,32.44-8.79,48.57-13.48,3.9-1.14,6.81-.62,10.19,1.53,37.71,23.98,78.66,31.82,122.47,23.36,90.47-17.47,149.85-108.25,128.6-198.56-14.75-62.66-54.14-104.78-115.96-122.48-61.46-17.59-116.77-2.66-162.33,42.29-55.83,55.08-64.11,139.54-21.73,206.51,2.03,3.21,2.6,5.98,1.52,9.72-4.9,16.93-9.46,33.96-14.39,51.82Zm345.93-128.93c-5.94,45.3-24.44,83.83-56.26,115.6-31.79,31.75-70.35,50.18-115.25,56.03.48,1.59.76,2.67,1.13,3.72,17.86,50.46,68.91,87.27,122.57,88.48,28.98.65,55.63-6.76,79.8-22.82,2.85-1.89,5.36-2.47,8.79-1.4,9.36,2.91,18.87,5.36,28.34,7.95,2.91.8,5.87,1.45,9.3,2.29-3.36-12.17-6.24-23.63-9.77-34.89-1.59-5.07-.94-8.86,1.94-13.37,35.2-55.11,26.86-125.55-20.13-171-14.3-13.83-30.89-24.02-50.46-30.6Z"/>
  <path class="cls-1" d="m165.18,149.82h-29.32c-.59-10.24,1.99-19.59,6.9-28.15,12.58-21.94,31.82-33.14,57.03-31.34,24.74,1.77,42.6,15,51.5,38.26,9.05,23.66,4.04,45.28-13.33,63.64-6.85,7.24-14.45,13.83-22.05,20.3-4.02,3.42-6,7-5.49,12.39.49,5.1.1,10.27.1,15.74h-30c0-5.12-.04-10.36,0-15.6.06-6.82-1.71-14.47.81-20.22,2.53-5.75,9.36-9.62,14.35-14.27,7.07-6.58,14.38-12.92,21.23-19.73,8.98-8.93,11.04-22.44,5.66-33.73-5.37-11.26-17.35-18.1-29.77-17.01-12.33,1.08-22.87,9.92-26.18,22.1-.65,2.38-.93,4.86-1.44,7.63Z"/>
  <path class="cls-1" d="m210.09,300.86h-29.18v-29.54h29.18v29.54Z"/>
</svg>