<?xml version="1.0" encoding="UTF-8"?>
<svg id="Layer_2" data-name="Layer 2" xmlns="http://www.w3.org/2000/svg" viewBox="0 0 288.07 288.12">
  <defs>
    <style>
      .cls-1 {
        fill: #fff;
      }
    </style>
  </defs>
  <g id="Layer_1-2" data-name="Layer 1">
    <g>
      <path class="cls-1" d="m288.06,96.42c0,27.26,0,54.52,0,81.78,0,9.18-4.67,13.87-13.79,13.88-30.88,0-61.76.01-92.64,0-8.88,0-13.58-4.75-13.58-13.7,0-54.89,0-109.79,0-164.68,0-9,4.65-13.68,13.6-13.68,31-.01,62.01-.01,93.01,0,8.64,0,13.39,4.8,13.4,13.51.02,27.63,0,55.27,0,82.9Z"/>
      <path class="cls-1" d="m144.03,210.08c0,21.38,0,42.76,0,64.15,0,9.18-4.67,13.88-13.79,13.88-38.88,0-77.76.01-116.64,0-8.88,0-13.59-4.75-13.59-13.7,0-42.89,0-85.78,0-128.67,0-9,4.65-13.68,13.59-13.69,39.01-.01,78.01-.01,117.02,0,8.64,0,13.4,4.8,13.41,13.5.02,21.51,0,43.01,0,64.52Z"/>
      <path class="cls-1" d="m71.84,108.04c-19.38,0-38.75,0-58.13,0-8.96,0-13.69-4.7-13.7-13.59C0,67.44,0,40.43.01,13.42.02,4.71,4.75.01,13.5.01c39-.01,78.01-.01,117.01,0,8.68,0,13.51,4.78,13.51,13.39.02,27.13.02,54.27,0,81.4,0,8.37-4.9,13.22-13.3,13.23-19.63.02-39.25,0-58.88,0Z"/>
      <path class="cls-1" d="m227.95,216.09c15.5,0,31-.01,46.5,0,8.89,0,13.59,4.73,13.6,13.68.02,15,.02,30.01,0,45.01-.02,8.42-4.85,13.31-13.22,13.32-31.25.02-62.51.02-93.76,0-8.13,0-13.01-4.94-13.03-13.12-.03-15.25-.03-30.51,0-45.76.02-8.25,4.83-13.1,13.02-13.12,15.63-.03,31.25,0,46.88-.01Z"/>
    </g>
  </g>
</svg>