<?xml version="1.0" encoding="UTF-8"?>
<svg id="Layer_2" data-name="Layer 2" xmlns="http://www.w3.org/2000/svg" viewBox="0 0 312.07 312.13">
  <defs>
    <style>
      .cls-1 {
        fill: #fff;
      }
    </style>
  </defs>
  <g id="Layer_1-2" data-name="Layer 1">
    <g>
      <path class="cls-1" d="m312.06,80.29c0,22,0,44,0,66,0,9.04-4.56,13.69-13.53,13.7-36.37.02-72.73.03-109.1,0-8.75,0-13.31-4.64-13.31-13.49-.02-44.25-.02-88.5,0-132.75,0-9.25,4.55-13.74,13.85-13.75,36.12,0,72.23,0,108.35,0,9.13,0,13.75,4.68,13.75,13.91.01,22.12,0,44.25,0,66.37Zm-111.72-56.16v111.66h87.45V24.13h-87.45Z"/>
      <path class="cls-1" d="m135.96,232.6c0,21.75,0,43.5,0,65.25,0,9.97-4.38,14.28-14.46,14.28-35.74,0-71.48,0-107.22,0-9.73,0-14.27-4.5-14.27-14.16C0,253.97,0,209.97,0,165.97c0-9.28,4.5-13.83,13.76-13.84,36.12-.02,72.23-.02,108.35,0,9.33,0,13.84,4.46,13.85,13.72.02,22.25,0,44.5,0,66.75Zm-111.85,55.31h87.51v-111.46H24.11v111.46Z"/>
      <path class="cls-1" d="m67.49,111.98c-17.74,0-35.49,0-53.23,0C4.46,111.97,0,107.55,0,97.87,0,69.87,0,41.87,0,13.87,0,4.63,4.6,0,13.78,0c36.11,0,72.23,0,108.34,0,9.24,0,13.83,4.54,13.83,13.78.02,28.25.02,56.49,0,84.74,0,8.85-4.56,13.43-13.35,13.45-18.37.04-36.74.01-55.11.01Zm-43.37-24.23h87.65V24.28H24.12v63.47Z"/>
      <path class="cls-1" d="m244.23,200.15c17.99,0,35.99-.02,53.98,0,9.25.01,13.84,4.58,13.84,13.77.01,28.12.01,56.24,0,84.37,0,9.21-4.63,13.83-13.83,13.83-36.11,0-72.23,0-108.34,0-9.18,0-13.77-4.59-13.78-13.83-.02-28.12-.02-56.24,0-84.37,0-9.31,4.46-13.76,13.77-13.77,18.12-.02,36.24,0,54.36,0Zm-43.96,87.73h87.58v-63.38h-87.58v63.38Z"/>
    </g>
  </g>
</svg>