<svg id="Layer_1" data-name="Layer 1" xmlns="http://www.w3.org/2000/svg" viewBox="0 0 23.45 24"><defs><style>.cls-1{fill:#fff;}</style></defs><path class="cls-1" d="M5.27,9.76A7.07,7.07,0,0,1,12,4.91a7,7,0,0,1,4.42,1.58L19.91,3A12,12,0,0,0,1.24,6.65Z"/><path class="cls-1" d="M16,18a7.33,7.33,0,0,1-4,1.08,7.07,7.07,0,0,1-6.72-4.82l-4,3.06A12,12,0,0,0,12,24a11.4,11.4,0,0,0,7.83-3Z"/><path class="cls-1" d="M19.83,21a12,12,0,0,0,3.62-9,9.56,9.56,0,0,0-.27-2.18H12v4.63h6.44A5.41,5.41,0,0,1,16,18Z"/><path class="cls-1" d="M5.28,14.27A7.11,7.11,0,0,1,4.91,12a7,7,0,0,1,.36-2.24l-4-3.11a12.12,12.12,0,0,0,0,10.68Z"/></svg>