<?xml version="1.0" encoding="UTF-8"?>
<svg id="Layer_1" data-name="Layer 1" xmlns="http://www.w3.org/2000/svg" viewBox="0 0 343.95 343.92">
  <defs>
    <style>
      .cls-1 {
        fill: #fff;
      }
    </style>
  </defs>
  <path class="cls-1" d="m0,182.06C0,175.34,0,168.62,0,161.91c.2-.96.5-1.92.58-2.9,1.94-26.79,9.47-51.93,23.6-74.74C56.41,32.24,103.34,4.03,164.43.32c31.14-1.89,60.93,4.7,88.2,19.94,56.42,31.54,87.11,79.91,91.01,144.45,2.06,34.13-6.28,66.27-24.18,95.46-27.2,44.36-66.58,71.52-117.86,81.08-6.46,1.2-13.04,1.79-19.56,2.67h-20.15c-.86-.19-1.72-.49-2.59-.55-29.86-2.11-57.37-11.34-82.14-28.07C36.53,287.85,11.59,249.89,2.69,201.59,1.5,195.14.88,188.57,0,182.06Zm238.66-51.03c-.25-20.27-5.2-31.9-14.88-41.48-10.07-9.97-22.44-15.35-36.28-17.33-23.03-3.3-44.46.41-62.64,15.95-11.3,9.65-18.38,21.78-19.43,36.96-.49,7.17,2.89,12.32,8.7,15.87,9.58,5.85,20.54,1.52,25-9.61,1.95-4.87,3.7-9.84,5.99-14.55,2.91-5.97,6.52-11.57,12.91-14.47,8.75-3.97,17.9-4.35,26.82-1.22,16.3,5.73,22.21,24.26,12.01,37.25-1.79,2.28-3.75,4.46-5.85,6.45-8.21,7.77-16.71,15.24-24.72,23.2-10.17,10.11-14.43,22.67-13.7,36.9.48,9.25,6.21,15.17,15.04,15.91,8.77.74,14.6-3.69,16.9-12.83.49-1.95,1.05-3.89,1.41-5.87,1.33-7.31,4.79-13.36,10.27-18.38,8.67-7.93,17.32-15.89,25.81-24.01,10.05-9.62,16.77-20.9,16.63-28.75Zm-48.5,122.14c.1-11.26-8.3-19.92-19.47-20.07-11.52-.16-20.53,8.52-20.57,19.8-.03,11.48,8.29,19.81,19.91,19.92,11.58.11,20.02-8.12,20.12-19.64Z"/>
</svg>