<?xml version="1.0" encoding="UTF-8"?>
<svg id="Layer_1" data-name="Layer 1" xmlns="http://www.w3.org/2000/svg" viewBox="0 0 408.89 408.95">
  <defs>
    <style>
      .cls-1 {
        fill: #fff;
      }
    </style>
  </defs>
  <path class="cls-1" d="m216.45,408.95h-23.96c-1.03-.23-2.04-.59-3.08-.66-28.53-1.95-55.66-9.27-80.58-23.22C41.61,347.46,5.11,289.93.38,213.02c-2.27-36.88,5.66-72.17,23.71-104.47C61.6,41.46,119.15,5.11,195.88.38c36.87-2.28,72.05,5.83,104.48,23.65,57.69,31.7,92.9,80.11,105.3,144.87,1.49,7.79,2.17,15.74,3.22,23.62v23.96c-.23,1.15-.6,2.29-.68,3.45-2,28.8-9.65,56.09-23.67,81.25-31.94,57.32-80.23,92.41-144.85,104.6-7.67,1.45-15.49,2.13-23.24,3.17Zm160.5-204.26c.16-95.06-76.86-172.36-172.08-172.69-95.12-.34-172.7,77-172.86,172.31-.16,95.06,76.86,172.36,172.08,172.69,95.12.34,172.7-77,172.86-172.31Z"/>
  <path class="cls-1" d="m188.5,234.21c0-6.39-.08-12.78.02-19.16.14-9.11,5.63-15.5,14.72-16.27,10.54-.89,19.82-4.01,26.35-12.77,7.75-10.4,9.12-21.79,3.36-33.41-5.97-12.05-16.16-18.24-29.66-17.72-16.79.64-28.84,12.55-30.61,29.49-.18,1.72-.16,3.47-.5,5.16-1.68,8.4-8.97,13.65-17.55,12.74-8.12-.86-14.21-7.61-13.99-16.17.57-22.45,9.99-40.49,28.78-52.71,21.45-13.95,44.25-14.83,66.45-2.17,22.81,13.01,33.51,33.62,32.24,59.83-1.24,25.63-19.21,48.21-43.99,56.16-2.96.95-3.89,2.18-3.78,5.23.25,7.04.14,14.1.06,21.16-.11,9.77-6.9,16.75-16.07,16.68-9.03-.07-15.7-6.96-15.83-16.51-.09-6.52-.02-13.04-.02-19.56Z"/>
  <path class="cls-1" d="m204.36,322.19c-11.06-.07-20.01-9.17-19.83-20.16.18-10.86,9.15-19.62,20.04-19.56,11.06.07,20.01,9.17,19.83,20.16-.18,10.86-9.15,19.62-20.04,19.56Z"/>
</svg>