<?xml version="1.0" encoding="UTF-8"?>
<svg id="Layer_1" data-name="Layer 1" xmlns="http://www.w3.org/2000/svg" viewBox="0 0 360.28 363.27">
  <defs>
    <style>
      .cls-1 {
        fill: #fff;
      }
    </style>
  </defs>
  <path class="cls-1" d="m180.05,363.25c-41.25,0-82.5.05-123.76-.02-27.5-.05-49.41-17.48-55.04-43.77-.8-3.75-1.16-7.66-1.16-11.5-.07-61.27-.14-122.54,0-183.8.05-21.79,9.74-38.5,28.84-49.05C70.42,52.16,112.06,29.45,153.8,6.95c17.4-9.38,35.29-9.22,52.74.16,41.11,22.09,82.13,44.36,123.17,66.59,20.42,11.06,30.59,28.2,30.57,51.45-.05,60.64.02,121.29-.03,181.93-.02,27.05-16.93,48.79-42.7,54.72-4.81,1.11-9.9,1.37-14.87,1.39-40.88.11-81.75.06-122.63.06Zm-.36-23.96c41.26,0,82.51.04,123.77-.02,19.66-.03,32.63-13.06,32.63-32.66.01-60.9.02-121.8,0-182.7,0-12.56-5.4-22.2-16.45-28.22-41.53-22.63-83.13-45.15-124.74-67.64-9.98-5.39-20.13-5.29-30.1.11-41.38,22.4-82.75,44.8-124.08,67.29-11.06,6.02-16.64,15.53-16.65,28.1-.04,61.27-.04,122.55.03,183.82,0,3.2.4,6.51,1.27,9.58,3.88,13.88,15.74,22.31,31.32,22.33,41.01.04,82.01.01,123.02.01Z"/>
  <path class="cls-1" d="m179.67,345.98c-42.74,0-85.49.03-128.23-.02-16.24-.02-28.6-8.8-32.64-23.27-.9-3.21-1.31-6.65-1.32-9.99-.08-63.87-.08-127.74-.04-191.61,0-13.1,5.82-23.02,17.35-29.29,43.08-23.44,86.21-46.8,129.34-70.14,10.39-5.63,20.97-5.73,31.37-.11,43.38,23.44,86.74,46.92,130.03,70.51,11.52,6.28,17.15,16.33,17.15,29.42.02,63.48.02,126.96,0,190.44,0,20.43-13.52,34.02-34.02,34.05-43,.06-86.01.02-129.01.02Zm.82-29.86c35.41,0,65.51-23.96,73.42-58.45,1.79-7.83-1.79-14.19-9.05-16.03-7.06-1.79-13.33,2.4-15.57,9.98-1.35,4.58-2.77,9.26-5,13.45-9.78,18.33-29.89,28.53-50.27,25.87-20.76-2.71-37.04-17.44-42.4-38.38-2.15-8.38-8.3-12.72-15.57-10.96-7.63,1.84-11.08,8.41-8.98,17.06,8.31,34.11,38.14,57.46,73.42,57.46Z"/>
</svg>