<?xml version="1.0" encoding="UTF-8"?>
<svg id="Layer_2" data-name="Layer 2" xmlns="http://www.w3.org/2000/svg" viewBox="0 0 377.07 376.03">
  <defs>
    <style>
      .cls-1 {
        fill: #fff;
      }
    </style>
  </defs>
  <g id="Layer_1-2" data-name="Layer 1">
    <path class="cls-1" d="m.05,256.75C.05,223.99.18,191.24,0,158.49c-.1-17.61,6.8-31.1,21.21-41.42C73.41,79.67,125.41,41.98,177.48,4.41c8.16-5.89,14.04-5.89,22.25.04,52.28,37.72,104.51,75.5,156.86,113.13,13.89,9.98,20.49,23.29,20.47,40.29-.08,66.38-.03,132.76-.03,199.14,0,12.05-6.97,19-19.14,19.01-39.25.01-78.49.01-117.74,0-12.02,0-18.34-6.27-18.34-18.17-.01-24.38.07-48.76-.03-73.13-.07-16.5-9.95-29.72-25-33.86-22.19-6.1-43.57,9.7-43.79,32.71-.25,24.75-.06,49.5-.07,74.26,0,11.72-6.36,18.18-17.99,18.19-39,.02-77.99.02-116.99,0-11.34,0-17.86-6.59-17.87-18.01-.02-33.75,0-67.51,0-101.26Zm344.89,87.88v-4.33c0-60.76-.06-121.53.08-182.29.01-6.55-2.45-11.09-7.64-14.84-48.91-35.35-97.77-70.78-146.6-106.26-1.93-1.4-3.18-1.53-5.18-.08-49.14,35.46-98.34,70.85-147.54,106.22-4.62,3.32-6.79,7.56-6.78,13.36.09,61.14.05,122.28.05,183.42v3.96h91.22c0-1.65,0-3.12,0-4.59.03-19.13-.41-38.27.18-57.38,1.07-34.99,28.93-62.35,63.87-63.4,34.84-1.05,65.36,26.63,66.8,61.46.83,20.1.26,40.25.32,60.38,0,1.43,0,2.86,0,4.38h91.22Z"/>
  </g>
</svg>