<?xml version="1.0" encoding="UTF-8"?>
<svg id="Layer_2" data-name="Layer 2" xmlns="http://www.w3.org/2000/svg" viewBox="0 0 288.05 295.88">
  <defs>
    <style>
      .cls-1 {
        fill: #fff;
      }
    </style>
  </defs>
  <g id="Layer_1-2" data-name="Layer 1">
    <path class="cls-1" d="m.03,202.35C.03,179.72.08,157.1,0,134.48c-.03-8,2.83-14.54,8.74-19.9C48.07,78.89,87.37,43.15,126.7,7.45c10.9-9.9,23.7-9.95,34.63-.03,39.34,35.69,78.64,71.43,117.97,107.13,5.9,5.36,8.76,11.9,8.75,19.9-.06,45.25-.01,90.49-.04,135.74,0,15.69-10.09,25.68-25.85,25.69-22.75.02-45.5.01-68.25,0-9.23,0-13.89-4.61-13.89-13.77-.01-22.75,0-45.5,0-68.25,0-9.44-4.57-13.98-14.05-13.98-14.75,0-29.5-.01-44.25,0-8.99,0-13.69,4.66-13.7,13.58-.01,22.75,0,45.5,0,68.25,0,9.7-4.5,14.17-14.24,14.17-22.62,0-45.25.01-67.87,0-15.96,0-25.87-9.98-25.88-26.03-.01-22.5,0-45,0-67.5Z"/>
  </g>
</svg>