<?xml version="1.0" encoding="UTF-8"?>
<svg id="Layer_1" data-name="Layer 1" xmlns="http://www.w3.org/2000/svg" viewBox="0 0 360.28 363.27">
  <defs>
    <style>
      .cls-1 {
        fill: #fff;
      }
    </style>
  </defs>
  <path class="cls-1" d="m180.05,363.25c-41.25,0-82.5.05-123.76-.02-27.5-.05-49.41-17.48-55.04-43.77-.8-3.75-1.16-7.66-1.16-11.5-.07-61.27-.14-122.54,0-183.8.05-21.79,9.74-38.5,28.84-49.05C70.42,52.16,112.06,29.45,153.8,6.95c17.4-9.38,35.29-9.22,52.74.16,41.11,22.09,82.13,44.36,123.17,66.59,20.42,11.06,30.59,28.2,30.57,51.45-.05,60.64.02,121.29-.03,181.93-.02,27.05-16.93,48.79-42.7,54.72-4.81,1.11-9.9,1.37-14.87,1.39-40.88.11-81.75.06-122.63.06Zm-.36-23.96c41.26,0,82.51.04,123.77-.02,19.66-.03,32.63-13.06,32.63-32.66.01-60.9.02-121.8,0-182.7,0-12.56-5.4-22.2-16.45-28.22-41.53-22.63-83.13-45.15-124.74-67.64-9.98-5.39-20.13-5.29-30.1.11-41.38,22.4-82.75,44.8-124.08,67.29-11.06,6.02-16.64,15.53-16.65,28.1-.04,61.27-.04,122.55.03,183.82,0,3.2.4,6.51,1.27,9.58,3.88,13.88,15.74,22.31,31.32,22.33,41.01.04,82.01.01,123.02.01Z"/>
  <path class="cls-1" d="m180.47,310.64c-33.84,0-62.46-22.4-70.43-55.13-2.02-8.3,1.29-14.6,8.61-16.37,6.97-1.69,12.88,2.47,14.94,10.51,5.14,20.09,20.75,34.22,40.67,36.82,19.55,2.55,38.84-7.23,48.23-24.81,2.14-4.02,3.51-8.51,4.8-12.9,2.14-7.27,8.16-11.29,14.93-9.57,6.96,1.77,10.4,7.87,8.68,15.38-7.58,33.09-36.46,56.08-70.43,56.07Z"/>
</svg>