<?xml version="1.0" encoding="UTF-8"?>
<svg id="Layer_1" data-name="Layer 1" xmlns="http://www.w3.org/2000/svg" viewBox="0 0 233.78 233.49">
  <defs>
    <style>
      .cls-1 {
        fill: #fff;
      }
    </style>
  </defs>
  <g id="SVGRepo_iconCarrier" data-name="SVGRepo iconCarrier">
    <g>
      <path class="cls-1" d="m204.34,63.95l-65.9-46.2c-14.9-10.4-38.9-9.9-53.3,1.3L27.64,63.85c-9.6,7.5-17.4,23.4-17.4,35.4v79c0,24.7,20.2,45,44.9,45h123.5c24.7,0,44.9-20.3,44.9-44.9v-77.6c0-12.9-8.6-29.4-19.2-36.8Zm-97.64,84.7c0-5.65,4.58-10.24,10.24-10.24s10.24,4.59,10.24,10.24v32c0,5.66-4.58,10.24-10.24,10.24s-10.24-4.58-10.24-10.24v-32Z"/>
      <path class="cls-1" d="m210.22,55.57L144.3,9.35C135.34,3.1,124.08,0,112.81,0c-12.28,0-24.59,3.68-33.96,10.97L21.34,55.78C9.17,65.28,0,83.97,0,99.25v79c0,30.46,24.74,55.24,55.14,55.24h123.5c30.4,0,55.14-24.74,55.14-55.14v-77.6c0-16.38-10.14-35.81-23.56-45.18Zm3.08,122.78c0,19.11-15.55,34.66-34.66,34.66H55.14c-19.11,0-34.66-15.59-34.66-34.76v-79c0-8.8,6.42-21.83,13.45-27.32l57.5-44.8c10.72-8.34,29.95-8.8,41.13-1l65.92,46.22c7.89,5.51,14.82,18.78,14.82,28.4v77.6Z"/>
    </g>
  </g>
</svg>