<?xml version="1.0" encoding="UTF-8"?>
<svg id="Layer_1" data-name="Layer 1" xmlns="http://www.w3.org/2000/svg" viewBox="0 0 352.02 352.1">
  <path d="m287.99,40.35c0-7.91-.09-14.98.05-22.05.05-2.59.27-5.29,1.08-7.72,2.39-7.2,9.79-11.55,17.11-10.39,8.1,1.28,13.75,7.53,13.8,15.73.1,18.62.04,37.25.04,55.87,0,2.87.07,5.75-.03,8.62-.3,8.53-6.77,15.35-15.28,15.42-21.75.18-43.51.18-65.26.01-8.83-.07-15.53-7.32-15.45-16.02.08-8.53,6.75-15.46,15.41-15.69,7.37-.2,14.75-.06,22.13-.07,1.19,0,2.38,0,3.87-.8-1.12-.87-2.24-1.76-3.38-2.62C177.93-2.38,56.11,43.78,34.84,146.75c-16.53,80.05,36.31,157.49,116.94,171.12,7.73,1.31,15.63,1.75,23.48,2.1,9.87.45,16.82,7.05,16.66,16.45-.16,9.11-7.32,15.7-17.04,15.67-84.69-.21-157.91-62.19-172.28-145.82C-13.56,112.25,47.28,22.53,140.7,3.82c52.63-10.54,100.64,1.16,143.5,33.59.99.75,1.96,1.53,3.79,2.94Z"/>
  <path d="m160.11,128.1c0-16.25-.12-32.5.05-48.74.08-7.82,6.08-14.25,13.51-15.14,8.21-.98,15.45,3.54,17.59,11.28.62,2.24.66,4.69.66,7.04.04,27.37.08,54.74-.04,82.11-.01,3.23.84,5.56,3.18,7.86,13.36,13.15,26.63,26.4,39.8,39.75,9.02,9.14,5.59,23.57-6.35,27.04-5.68,1.65-11.07.61-15.31-3.59-16.35-16.17-32.58-32.47-48.8-48.77-3.26-3.28-4.37-7.4-4.35-11.98.07-15.62.03-31.24.03-46.87.01,0,.02,0,.04,0Z"/>
  <path d="m305.05,289.13c-.04,8.8-7.27,15.95-16.08,15.9-8.74-.05-16-7.38-15.93-16.1.08-8.75,7.43-16.01,16.13-15.93,8.79.08,15.92,7.32,15.87,16.13Z"/>
  <path d="m237.38,308.03c8.81.07,15.94,7.32,15.86,16.11-.08,8.75-7.46,15.99-16.17,15.86-8.77-.13-16-7.49-15.89-16.17.12-8.81,7.36-15.87,16.19-15.8Z"/>
  <path d="m335.94,192c-8.87-.03-15.92-7.13-15.89-16,.03-8.85,7.13-15.86,16.04-15.83,8.87.02,15.99,7.17,15.93,15.99-.06,8.85-7.19,15.87-16.08,15.84Z"/>
  <path d="m323.99,221.57c8.9,0,15.98,7.07,15.97,15.93-.01,8.86-7.1,15.9-16,15.9-8.89,0-15.94-7.05-15.93-15.93,0-8.88,7.06-15.91,15.97-15.9Z"/>
</svg>