<?xml version="1.0" encoding="UTF-8"?>
<svg id="Layer_2" data-name="Layer 2" xmlns="http://www.w3.org/2000/svg" viewBox="0 0 465.26 617.56">
  <defs>
    <style>
      .cls-1 {
        fill: #fff;
      }
    </style>
  </defs>
  <g id="Layer_1-2" data-name="Layer 1">
    <path class="cls-1" d="m.01,308.82C.01,239.46-.03,170.11.04,100.76c.03-27.01,8.95-50.68,27.77-70.21C63.5-6.48,120.34-10.28,160.92,21.52c41.85,32.79,83.62,65.68,125.42,98.53,46.39,36.45,92.75,72.93,139.17,109.35,52.78,41.41,53.08,116.94.41,158.4-88.13,69.37-176.32,138.68-264.59,207.88-58.71,46.03-142.99,15.83-158.98-56.99-1.63-7.42-2.22-15.2-2.24-22.82C-.05,446.86.01,377.84.01,308.82Z"/>
  </g>
</svg>