<svg id="Layer_1" data-name="Layer 1" xmlns="http://www.w3.org/2000/svg" viewBox="0 0 20.3 19.83"><defs><style>.cls-1{fill:#fff;fill-rule:evenodd;}</style></defs><g id="Icons"><g id="Rounded"><g id="Image"><g id="_-Round-_-Image-_-rotate_90_degrees_cc" data-name="-Round-/-Image-/-rotate_90_degrees_cc"><path id="_-Icon-Color" data-name="🔹-Icon-Color" class="cls-1" d="M4.93,5.83,1.28,9.49a2,2,0,0,0,0,2.83L4.94,16a2,2,0,0,0,2.83,0l3.66-3.65a2,2,0,0,0,0-2.83L7.76,5.82A2,2,0,0,0,4.93,5.83ZM3.4,10.19,5.65,7.94a1,1,0,0,1,1.42,0l2.24,2.24a1,1,0,0,1,0,1.41L7.06,13.84a1,1,0,0,1-1.42,0L3.4,11.61A1,1,0,0,1,3.4,10.19Zm15-5.55A9,9,0,0,0,12,2V1.17A1,1,0,0,0,10.29.46L8.47,2.29a1,1,0,0,0,0,1.41L10.3,5.53a1,1,0,0,0,1.7-.7V4a7,7,0,0,1,5.45,2.61A7,7,0,0,1,12,18a6.89,6.89,0,0,1-2.29-.39,1,1,0,0,0-1,.26A1,1,0,0,0,9,19.49a9,9,0,0,0,9.33-2.13A9,9,0,0,0,18.36,4.64Z" transform="translate(-0.69 -0.17)"/></g></g></g></g></svg>