<svg id="Layer_1" data-name="Layer 1" xmlns="http://www.w3.org/2000/svg" viewBox="0 0 20.3 19.83"><defs><style>.cls-1{fill:#fff;fill-rule:evenodd;}</style></defs><g id="Icons"><g id="Rounded"><g id="Image"><g id="_-Round-_-Image-_-rotate_90_degrees_cc" data-name="-Round-/-Image-/-rotate_90_degrees_cc"><path id="_-Icon-Color" data-name="🔹-Icon-Color" class="cls-1" d="M16.76,5.83l3.65,3.66a2,2,0,0,1,0,2.83L16.75,16a2,2,0,0,1-2.83,0l-3.66-3.65a2,2,0,0,1,0-2.83l3.67-3.68A2,2,0,0,1,16.76,5.83Zm1.53,4.36L16,7.94a1,1,0,0,0-1.42,0l-2.24,2.24a1,1,0,0,0,0,1.41l2.25,2.25a1,1,0,0,0,1.42,0l2.24-2.23A1,1,0,0,0,18.29,10.19Zm-15-5.55A9,9,0,0,1,9.69,2V1.17A1,1,0,0,1,11.4.46l1.82,1.83a1,1,0,0,1,0,1.41L11.39,5.53a1,1,0,0,1-1.7-.7V4A7,7,0,0,0,4.24,6.61,7,7,0,0,0,9.69,18,6.89,6.89,0,0,0,12,17.61a1,1,0,0,1,1,.26,1,1,0,0,1-.34,1.62,9,9,0,0,1-9.33-2.13A9,9,0,0,1,3.33,4.64Z" transform="translate(-0.69 -0.17)"/></g></g></g></g></svg>