<?xml version="1.0" encoding="UTF-8"?>
<svg id="Layer_2" data-name="Layer 2" xmlns="http://www.w3.org/2000/svg" viewBox="0 0 384 360.09">
  <defs>
    <style>
      .cls-1 {
        fill: #fff;
      }
    </style>
  </defs>
  <g id="Layer_1-2" data-name="Layer 1-2">
    <g>
      <path class="cls-1" d="m0,191.37c.98,7.02,1.55,14.13,3,21.05,14.24,67.8,53.87,113.89,118.82,137.96,17.94,6.65,36.71,9.45,55.83,9.71,10.4.14,17.32-5.91,17.33-14.96,0-8.93-6.65-14.86-16.91-15.03-65.58-1.11-122.9-44.24-141.58-106.51C11.18,139.2,63.06,51.6,149.21,33.27c78.82-16.77,157.94,33.32,176.53,111.75.28,1.17.46,2.36.78,4.03-3.43,0-6.39.04-9.36,0-6.41-.1-11.49,2.31-14.53,8.09-2.96,5.65-2.03,11.07,1.44,16.26,8.41,12.55,16.73,25.17,25.17,37.7,7.1,10.54,19.35,10.47,26.48-.14,8.36-12.44,16.66-24.91,24.93-37.41,1.28-1.97,2.24-4.13,3.35-6.19v-6.75c-4.65-13.21-15.89-11.85-26.32-11.52-1.94-7.56-3.53-14.74-5.64-21.76C323.89,33.71,224.59-20.8,130.1,7.48,60.13,28.43,18.05,76.67,2.94,148.19c-1.44,6.8-1.98,13.78-2.94,20.67v22.5h0Z"/>
      <path class="cls-1" d="m179.83,109.19c-39.03.12-70.75,31.87-70.8,70.88-.05,39.08,32.05,71.13,71.09,70.97,39.21-.16,71.11-32.27,70.76-71.26-.34-39.17-32.09-70.71-71.06-70.59h0Zm-.33,30.02c22.19-.49,40.69,17.51,41.35,40.24.64,22.31-17.58,41.06-40.4,41.57-22.32.5-41.06-17.9-41.4-40.62-.33-22.25,17.77-40.68,40.45-41.18h0Z"/>
    </g>
  </g>
</svg>