<?xml version="1.0" encoding="UTF-8"?>
<svg id="Layer_1" data-name="Layer 1" xmlns="http://www.w3.org/2000/svg" viewBox="0 0 345.72 345.63">
  <defs>
    <style>
      .cls-1 {
        fill: #fff;
      }
    </style>
  </defs>
  <path class="cls-1" d="m223.28,251.06c-62.11,45.59-145.7,33.07-191.8-23.34C-13.71,172.42-9.85,92.23,40.49,41.2,90.26-9.25,170.42-13.97,226.3,30.37c57.56,45.66,70.8,130.34,24.82,192.85,5.43,5.14,10.47,10.98,16.52,15.44,20.83,15.34,42.07,30.11,63.04,45.25,13.48,9.73,18.43,25.5,12.68,40.04-4.75,12.01-13.69,19.4-26.42,21.25-13.48,1.96-24.65-2.84-32.68-13.97-14.99-20.78-29.62-41.81-44.8-62.45-4.69-6.37-10.69-11.79-16.17-17.73Zm35.79-115.28c-.5-4.16-.95-12.19-2.5-20C244.32,53.9,185.7,12.47,122.93,21.13c-58.01,8-102.01,57.11-102.93,115.65-.59,37.83,13.75,69.4,42.48,94.05,49.56,42.53,123.32,33.95,158.52-5.59,5.22-5.87,11.55-10.87,16.12-17.19,14.72-20.33,21.59-43.39,21.95-72.27Z"/>
</svg>