<?xml version="1.0" encoding="UTF-8"?>
<svg id="Layer_2" data-name="Layer 2" xmlns="http://www.w3.org/2000/svg" viewBox="0 0 408.79 373.97">
  <defs>
    <style>
      .cls-1 {
        fill: #fff;
      }
    </style>
  </defs>
  <g id="Layer_1-2" data-name="Layer 1">
    <g>
      <path class="cls-1" d="m408.79,88c-2.67,10.25-5.43,20.48-7.99,30.75-9.7,39.06-19.31,78.15-28.99,117.22-2.57,10.38-7.46,14.18-18.09,14.18-77.58,0-155.15,0-232.73,0-10.93,0-15.67-3.71-18.24-14.42-15.92-66.54-31.82-133.08-47.71-199.62-1.34-5.6-1.31-5.6-7.16-5.6-11.04,0-22.09.13-33.13-.09-7.61-.15-13.69-5.93-14.64-13.31C-.82,9.77,3.82,2.67,11.07.66,12.95.14,15,.05,16.98.04,32.68,0,48.38-.01,64.08.02c9.49.02,14.57,3.93,16.82,13.12,4.23,17.29,8.33,34.61,12.49,51.92.31,1.28.67,2.55,1.11,4.21,1.87,0,3.7,0,5.53,0,96.61,0,193.21,0,289.82,0,4.43,0,9.13-.22,12.45,3.04,2.65,2.6,4.36,6.16,6.48,9.29v6.39Zm-34.92,12.1H101.76c9.55,39.99,19.04,79.69,28.54,119.44,1.16.05,1.95.12,2.74.12,69.3,0,138.61,0,207.91.06,2.62,0,3.58-.8,4.21-3.38,7.02-28.77,14.19-57.5,21.31-86.24,2.45-9.9,4.89-19.81,7.4-30Z"/>
      <path class="cls-1" d="m189.56,322.97c.13,27.93-22.47,50.76-50.49,50.99-28.2.23-51.15-22.37-51.31-50.53-.16-28.22,22.4-51.02,50.65-51.2,28.14-.17,51.02,22.52,51.15,50.74Zm-30.62.12c0-11.14-9.09-20.28-20.22-20.33-11.09-.04-20.33,9.06-20.47,20.15-.14,11.15,9.31,20.63,20.49,20.56,11.1-.07,20.19-9.24,20.2-20.38Z"/>
      <path class="cls-1" d="m272.79,323.17c-.08-28.16,22.72-50.97,50.91-50.94,28.05.03,50.72,22.59,50.84,50.6.12,28.22-22.49,51.03-50.71,51.14-28.2.1-50.97-22.56-51.05-50.8Zm30.56-.13c-.02,11.12,9.08,20.33,20.16,20.43,11.17.09,20.64-9.36,20.55-20.51-.09-11.05-9.36-20.22-20.43-20.2-11.12.02-20.25,9.16-20.28,20.28Z"/>
    </g>
  </g>
</svg>