<svg xmlns="http://www.w3.org/2000/svg" viewBox="0 0 1873.02 451.89"><g id="Layer_2" data-name="Layer 2"><g id="Layer_1-2" data-name="Layer 1"><path d="M155.79,0c48.84,98.15,97.67,196.3,147.39,296.23H273.6c-11.59,0-23.22.5-34.76-.29-3.67-.26-8.83-3.09-10.41-6.2Q175.75,185.9,123.91,81.62c-1.5-3-2.74-7.48-1.59-10.23C132.26,47.56,142.77,24,153.11.31Z"/><path d="M1268.34,92.84c-27.19,39.67-35.51,81.67-13.81,124.57,22.41,44.29,63.16,56.48,111,55.1-7.63,4.58-15,9.66-22.92,13.65-53.64,27-123.34,9-154.9-40.3-40.62-63.48,3.24-144.27,74.46-153A58.11,58.11,0,0,1,1268.34,92.84Z"/><path d="M677.51,92.84c-26.89,39.75-35.56,81.33-14,124,22.38,44.43,62.9,56.91,110.95,53.58-1.44,1.83-2.22,3.34-3.45,4.31-52.87,41.8-139.13,27.07-174.71-30-39.49-63.33,4.55-143.49,75.35-151.9C673.09,92.69,674.61,92.84,677.51,92.84Z"/><path d="M340.11,280.54c23.64,5.32,46.12,10.38,68.6,15.42,24.34,5.46,48.78,10.53,73,16.4,44.77,10.85,75.13,37.22,87.15,82.57,1,3.7,1,7.64,1.72,13.3-9.77-2.13-18.22-3.89-26.62-5.82-41.83-9.58-84.09-17.61-125.34-29.25-41.92-11.82-68.42-40.45-77.71-83.68C340.39,286.94,340.44,284.29,340.11,280.54Z"/><path d="M1047.36,293.64l-103.49-201c25.12,0,48.51-.17,71.9.25,2.46,0,5.83,3,7.16,5.5q33.68,62.67,66.74,125.69c1.43,2.72,1.93,7.62.42,9.9-12.93,19.52-26.42,38.66-39.77,57.89C1050,292.35,1049.3,292.52,1047.36,293.64Z"/><path d="M917.5,295.39,813.07,92.62c18.47,0,35.28,1.52,51.69-.4,19-2.21,28.41,5,36.52,22,17.56,36.74,37.67,72.26,57.08,108.11,3,5.59,3,9.68-.68,14.85C944.54,255.75,931.79,274.6,917.5,295.39Z"/><path d="M1636.91,296.17c-22.74,0-44,.16-65.25-.31-1.71,0-4.63-4.3-4.77-6.73-.56-9.7-.25-19.44-.25-29.17q0-77.05,0-154.1c0-3.51.36-7,.59-11.36,14.5,2.44,25.55,9.16,35.32,17.87,22.28,19.86,34.1,44.78,34.28,74.74.2,33.13.05,66.26.05,99.39C1636.9,289.2,1636.91,291.9,1636.91,296.17Z"/><path d="M1755.85,296.1c-20.71,0-41.06.15-61.4-.33-1.46,0-4-4.77-4-7.35-.34-19.16-.19-38.33-.19-57.5,0-33.77.15-67.54-.13-101.31,0-6.15,2-8.63,7.74-11.19,19.59-8.76,38.7-18.59,58-28Z"/><path d="M408.21,261.9c-34,2.24-60.45-10.88-77.75-39.73-18.24-30.41-17.41-61.7,2.23-91.25,17.79-26.78,44-37.6,75.78-36C378.41,150.67,378.71,205.72,408.21,261.9Z"/><path d="M461.14,261.53C490.63,205.8,490.73,151,461.32,96c20.12-5.7,51.94,7.55,70,29.84,20.7,25.53,23.77,63.74,7.52,93.59C523,248.42,492.9,264.71,461.14,261.53Z"/><path d="M1513.88,194.34c-40.47,25.91-37.75,77.59,1.33,101.77-21.09,0-40.79,1.75-60-4.6-23.59-7.82-37.25-25.28-36.65-46.8s14.67-40.73,37.75-46.07c18.63-4.32,38.15-4.79,57.27-7Z"/><path d="M738.28,196.09c3.82-37.08.8-72.21-23.8-102.38l1.41-2.23c9.51,2.44,19.54,3.67,28.43,7.52,39.79,17.21,61.49,48,66.28,90.87.49,4.32.14,7.88-5.81,7.83-21-.2-42-.17-63-.29C740.93,197.4,740.1,196.8,738.28,196.09Z"/><path d="M1328.92,197.65c4.25-38.12,1-73.14-22.38-105.37,6.55,1.13,13.28,1.64,19.63,3.47,40.83,11.78,71.86,50.47,75.11,92.76.51,6.58-.94,9.39-8.14,9.27C1372.22,197.43,1351.28,197.65,1328.92,197.65Z"/><path d="M120.32,295.52H0l56.08-71.74C73,249.51,90.63,276.29,120.32,295.52Z"/><path d="M1781.51,139.39c10.58-23.7,24-41.42,47.55-49.12a33.6,33.6,0,0,1,40,15.71c7.24,13,4.3,29.79-7,40-11.7,10.58-28.27,11.31-41.82.65C1809.06,137.85,1797.1,135.16,1781.51,139.39Z"/><path d="M495.45,55.82c9.88-20.1,42.68-36.27,64.1-31a41.35,41.35,0,0,1,19.64,11.81c12.22,13.52,9.73,33.39-4.28,45.53-12.75,11.06-34.28,9.91-45.09-3.93C520.75,66.59,511.86,56,495.45,55.82Z"/><path d="M1501.56,91.78c-8.11,13.54-6.69,25.65-1.28,38.49,5,12,.16,25.46-10,33.44a31.71,31.71,0,0,1-36.75,1.92c-11-6.86-17.19-20.82-14.1-33.06,1.16-4.62,3-9.49,5.84-13.2C1459.05,101.55,1477.66,93,1501.56,91.78Z"/><path d="M452,451.15c-2.92.2-5.85.57-8.77.58-28.91,0-57.82-.16-86.72.15-7,.08-9.7-1.78-9.57-9.19.41-23.23.15-46.48.95-70.18C372.52,412.12,409.91,434,452,451.15Z"/><path d="M1129,155.74c-12.35-24.13-26.7-45.36-48.8-62.5h92.89Z"/></g></g></svg>