<svg xmlns="http://www.w3.org/2000/svg" viewBox="0 0 1063.15 1029.47"><g id="Layer_2" data-name="Layer 2"><g id="Layer_1-2" data-name="Layer 1"><path d="M0,1015.89C175.2,678.86,350.39,341.83,528.09,0c36.5,70.21,70.11,134.9,103.75,199.57,60.77,116.81,121,233.88,183.09,350,6.47,12.11,22.33,22.41,36,26.89C906.52,594.66,963,610.07,1019,627.06c9.23,2.8,17.61,8.39,26.67,16.6C650,636.34,316.6,797.83,5.81,1021.66ZM655.51,554.75,528.15,308.88C475.3,410.65,425.09,507.32,375,603.7Z"/><path d="M1063.15,1029.47,653.82,899.21C711.93,811,782,743,876.77,702.88c4.9-2.07,17,2.06,19.47,6.65C950.9,813,1004.68,916.92,1063.15,1029.47Z"/></g></g></svg>