<?xml version="1.0" encoding="UTF-8"?>
<svg id="Layer_1" data-name="Layer 1" xmlns="http://www.w3.org/2000/svg" viewBox="0 0 230.88 142.03">
  <defs>
    <style>
      .cls-1 {
        fill: #fff;
      }

      .cls-2 {
        fill: #2e3a52;
      }

      .cls-3 {
        fill: #cddcf1;
      }

      .cls-4 {
        fill: #fe3229;
      }

      .cls-5 {
        fill: #3785ff;
      }

      .cls-6 {
        fill: #05ad49;
      }

      .cls-7 {
        fill: #fabc06;
      }

      .cls-8 {
        fill: #7fba00;
      }

      .cls-9 {
        fill: #4285f4;
      }

      .cls-10 {
        fill: #fbbc05;
      }

      .cls-11 {
        fill: #f25022;
      }

      .cls-12 {
        fill: #ffb900;
      }

      .cls-13 {
        fill: #34a853;
      }

      .cls-14 {
        fill: #ea4335;
      }

      .cls-15 {
        fill: #00a4ef;
      }
    </style>
  </defs>
  <rect class="cls-2" x=".65" y="46.05" width="95.15" height="95.15" rx="47.57" ry="47.57"/>
  <rect class="cls-5" x="66.49" y="6.54" width="59.23" height="38.19" rx="8.93" ry="8.93" transform="translate(12.11 -27.64) rotate(17.45)"/>
  <path class="cls-5" d="m104.49,59.57l6.14-23.48c.13-1.12-4.22-2.44-5.32-2.22l-14.6,2.94c-1.1.22-1.67,1.45-1.11,2.43l11.81,20.95c.79,1.39,2.9.97,3.08-.62Z"/>
  <rect class="cls-3" x="103.6" y="63.24" width="41.94" height="41.94" rx="20.97" ry="20.97"/>
  <path class="cls-7" d="m157.57,26.13l-14.61,4.23c-1.84.53-3.26,2.01-3.71,3.87l-3.64,14.77c-.46,1.86.11,3.82,1.49,5.15l10.97,10.54c1.38,1.33,3.37,1.82,5.21,1.28l14.61-4.23c1.84-.53,3.26-2.01,3.71-3.87l3.64-14.77c.46-1.86-.11-3.82-1.49-5.15l-10.97-10.54c-1.38-1.33-3.37-1.82-5.21-1.28Z"/>
  <rect class="cls-6" x="124.57" y="114.73" width="25.66" height="25.66" rx="12.83" ry="12.83"/>
  <rect class="cls-4" x="95.94" y="119.41" width="16.3" height="16.3" rx="2.51" ry="2.51" transform="translate(-60.45 133.41) rotate(-52.82)"/>
  <rect class="cls-2" x="155" y="68.56" width="70.75" height="67.39" rx="5.84" ry="5.84" transform="translate(-15.26 35.83) rotate(-10.34)"/>
  <path class="cls-10" d="m182.89,103.33c-.16-.9-.17-1.79-.04-2.65l-5.41-2.69c-.61,2.08-.72,4.27-.33,6.4.4,2.2,1.3,4.19,2.57,5.86l4.11-4.44c-.43-.77-.73-1.61-.89-2.48"/>
  <path class="cls-14" d="m189.76,93.63c1.99-.36,3.92,0,5.54.87l3.38-4.78c-2.9-1.68-6.36-2.41-9.96-1.76-5.59,1.02-9.83,5.03-11.3,10.02l5.41,2.69c.5-3.46,3.2-6.38,6.91-7.06"/>
  <path class="cls-13" d="m192.75,109.98c-3.71.68-7.27-1.1-8.96-4.16l-4.11,4.43c3.14,4.16,8.51,6.41,14.11,5.39,3.45-.63,6.53-2.43,8.59-5.13l-5.15-2.6c-1.13,1.02-2.66,1.74-4.48,2.07"/>
  <path class="cls-9" d="m204.77,99.34c-.15-.82-.44-1.67-.78-2.46l-13.19,2.41.98,5.35,7.59-1.38c-.05,1.89-.82,3.48-2.13,4.66l5.15,2.6c2.17-2.84,3.22-6.66,2.39-11.17"/>
  <path d="m116.06,80.16c-2.03,3.52-.74,8.87,1.51,12.11,1.12,1.62,2.25,3.08,3.81,3.08h.09c.73-.03,1.26-.25,1.77-.47.57-.24,1.17-.5,2.09-.5s1.45.24,1.99.48,1.09.47,1.91.46c1.75-.03,2.82-1.6,3.77-2.99.71-1.04,1.27-2.18,1.65-3.39v-.02c.04-.1,0-.2-.1-.24h-.01c-.31-.13-3.01-1.33-3.04-4.6-.03-2.66,2.03-4.06,2.44-4.32h.02s.08-.09.09-.14c.01-.05,0-.11-.03-.15-1.42-2.08-3.59-2.39-4.47-2.43-.13-.01-.26-.02-.39-.02-1.03,0-2.01.39-2.8.7-.55.22-1.02.4-1.34.4-.37,0-.84-.19-1.39-.41-.73-.29-1.57-.62-2.45-.62h-.06c-2.05.03-3.98,1.2-5.05,3.06Z"/>
  <path d="m129.55,71.33c-1.24.05-2.73.81-3.62,1.86-.76.88-1.5,2.34-1.3,3.81.01.09.09.16.18.17.08,0,.17,0,.26,0,1.21,0,2.52-.67,3.42-1.75.94-1.14,1.42-2.61,1.27-3.92-.01-.1-.1-.18-.2-.18Z"/>
  <path class="cls-1" d="m91.32,23.43l2.22.7-2.87,9.12c-.06.18.04.37.22.43l3.76,1.18c.18.06.37-.04.43-.22l2.85-9.08,2.55.8c.17.05.35-.03.42-.19l1.44-3.24c.08-.17,0-.37-.17-.45-.01,0-.03-.01-.04-.01l-2.93-.92.66-2.1c.2-.63.64-.85,1.32-.64l1.92.6c.18.06.37-.04.43-.22l.97-3.09c.06-.18-.04-.37-.22-.43l-2.64-.83-.12-.04c-.46-.14-2.08-.56-3.71.21-1.8.85-2.09,2.44-2.13,2.73l-.77,2.46-2.33-.73c-.18-.06-.37.04-.43.22l-1.04,3.32c-.06.18.04.37.22.43Z"/>
  <path class="cls-11" d="m32.94,78.56h14.32v14.32h-14.32v-14.32Z"/>
  <path class="cls-8" d="m48.76,78.56h14.32v14.32h-14.32v-14.32Z"/>
  <path class="cls-15" d="m32.94,94.37h14.32v14.32h-14.32v-14.32Z"/>
  <path class="cls-12" d="m48.76,94.37h14.32v14.32h-14.32v-14.32Z"/>
</svg>