<?xml version="1.0" encoding="UTF-8"?>
<svg id="Layer_1" data-name="Layer 1" xmlns="http://www.w3.org/2000/svg" viewBox="0 0 508.98 409.02">
  <defs>
    <style>
      .cls-1 {
        fill: #2e3a52;
      }

      .cls-2 {
        fill: #cddcf1;
      }

      .cls-3 {
        fill: #fe3229;
      }

      .cls-4 {
        stroke: #cddcf1;
      }

      .cls-4, .cls-5 {
        fill: none;
        stroke-miterlimit: 10;
        stroke-width: 6px;
      }

      .cls-6 {
        fill: #3785ff;
      }

      .cls-7 {
        fill: #05ad49;
      }

      .cls-8 {
        fill: #fabc06;
      }

      .cls-5 {
        stroke: #3785ff;
      }
    </style>
  </defs>
  <path class="cls-1" d="m245.87,77.6v318.85c0,6.95-5.63,12.57-12.57,12.57H22.66c-6.95,0-12.57-5.62-12.57-12.57V77.6c0-6.95,5.62-12.58,12.57-12.58h210.64c6.94,0,12.57,5.63,12.57,12.58Z"/>
  <rect class="cls-8" x="280.39" y="-27.88" width="51.11" height="321.12" transform="translate(185.45 -178.27) rotate(45.37)"/>
  <path class="cls-4" d="m345.71,269.22l-18.57,67.23c-.88,3.2,2.03,6.15,5.24,5.32l67.63-17.65c3.21-.84,4.31-4.84,1.97-7.2l-49.06-49.58c-2.33-2.35-6.33-1.31-7.22,1.88Z"/>
  <path class="cls-3" d="m344.08,369.6l-34.32,6.42c-2.47.47-4.85-1.16-5.31-3.63l-6.42-34.32c-.46-2.47,1.16-4.85,3.63-5.31l24.75-4.63,6.35-1.19,3.22-.6c2.47-.46,4.85,1.17,5.31,3.64l1.13,6.05,1.1,5.84,4.19,22.42c.47,2.47-1.16,4.85-3.63,5.31Z"/>
  <path class="cls-8" d="m342.42,336.03l-10.86,2.84c-.94.24-1.79-.61-1.54-1.55l2.74-10.38-6.35,1.19-2.1,7.59c-1.47,5.34,3.39,10.28,8.76,8.88l10.45-2.73-1.1-5.84Z"/>
  <rect class="cls-6" x="0" y="93.03" width="32.01" height="6.16" rx="3.08" ry="3.08"/>
  <rect class="cls-6" x="0" y="124.03" width="32.01" height="6.16" rx="3.08" ry="3.08"/>
  <rect class="cls-6" x="0" y="155.03" width="32.01" height="6.16" rx="3.08" ry="3.08"/>
  <rect class="cls-6" x="0" y="187.03" width="32.01" height="6.16" rx="3.08" ry="3.08"/>
  <rect class="cls-6" x="0" y="219.03" width="32.01" height="6.16" rx="3.08" ry="3.08"/>
  <rect class="cls-6" x="0" y="250.03" width="32.01" height="6.16" rx="3.08" ry="3.08"/>
  <rect class="cls-6" x="0" y="281.03" width="32.01" height="6.16" rx="3.08" ry="3.08"/>
  <rect class="cls-6" x="0" y="313.03" width="32.01" height="6.16" rx="3.08" ry="3.08"/>
  <rect class="cls-6" x="0" y="344.03" width="32.01" height="6.16" rx="3.08" ry="3.08"/>
  <rect class="cls-6" x="0" y="375.03" width="32.01" height="6.16" rx="3.08" ry="3.08"/>
  <rect class="cls-1" x="90.45" y="284.79" width="75.11" height="75.11" rx="37.55" ry="37.55"/>
  <rect class="cls-1" x="68.03" y="402.98" width="117.27" height="6.05"/>
  <path class="cls-3" d="m420.64,149.96c3.51-4.38,7.97-7.02,13.22-7.84,7.45-1.16,12.61-4.92,15.88-11.71,2.28-4.72,6.04-7.86,11.46-8.68,6.99-1.06,13.75,2.53,16.51,8.83,2.77,6.35.82,14.09-4.76,18.37-1.57,1.21-3.3,2.27-5.07,3.16-4.78,2.39-7.77,6.07-8.91,11.34-.53,2.47-1.3,4.92-2.22,7.28-4.51,11.62-17.65,16.69-28.81,11.2-10.9-5.36-15.03-19-8.93-29.54.45-.78.99-1.52,1.61-2.43m7.73,28.06c10.68,5.62,21.75,1.22,25.61-10.2.61-1.8,1.13-3.64,1.55-5.5,1.37-6.06,4.8-10.45,10.35-13.26,1.77-.9,3.54-1.92,5.04-3.2,3.77-3.21,5.32-7.32,4.01-12.2-1.29-4.78-4.62-7.57-9.41-8.36-4.82-.79-8.76.94-11.49,5.08-1.2,1.82-2.26,3.73-3.4,5.58-2.74,4.48-6.63,7.39-11.75,8.62-1.68.4-3.36.79-5.03,1.22-7.58,1.96-12.51,6.62-13.76,14.44-1.19,7.44,1.77,13.3,8.29,17.76Z"/>
  <path class="cls-2" d="m466.81,123.46c-2.65-7.27-5.56-14.44-8.52-21.6-1.56-3.77-6.33-6.25-10.27-5.67-7.53,1.1-11.37,7.58-8.7,14.74,1.17,3.15,2.45,6.27,3.72,9.55,1.11,2.79,2.18,5.49,3.25,8.17.67-.61,1.52-1.05,2.56-1.24-2.6-6.06-5.02-12.21-7.32-18.4-1.44-3.86.98-8.4,4.75-9.7,3.95-1.37,8.3.49,9.86,4.35,2.71,6.74,5.33,13.51,7.99,20.27,1.14,3.54.28,6.31-2.16,8.53-1.91,1.74-4.23,2.41-6.54,1.82-.18.93-.56,1.82-1.15,2.56,2.02.51,4.22.44,6.32-.34,5.16-1.92,8.13-7.78,6.21-13.03Z"/>
  <path class="cls-7" d="m503.32,253.11c4.92,1.91,5.88,5.39,4.87,9.82-1.88,8.26-3.64,16.54-5.6,24.78-1.74,7.32-7.29,9.12-12.9,4.13-6.44-5.73-12.77-11.59-19.03-17.52-5.23-4.96-4.05-10.88,2.73-12.95,9.79-2.99,19.71-5.58,29.93-8.26Z"/>
  <path class="cls-5" d="m93.32,266.75h81.82c5.63,0,10.23,4.6,10.23,10.23v61.36c0,5.63-4.6,10.23-10.23,10.23h-81.82c-5.63,0-10.23-4.6-10.23-10.23v-61.36c0-5.63,4.6-10.23,10.23-10.23Z"/>
  <polyline class="cls-5" points="185.37 276.97 134.23 312.77 83.1 276.97"/>
  <rect class="cls-1" x="155.11" y="256.19" width="39.83" height="21.85"/>
  <polygon class="cls-8" points="163.33 273.45 209.63 263.65 173.72 227.28 163.33 273.45"/>
  <rect class="cls-8" x="190.03" y="220.52" width="4" height="49.19" transform="translate(-116.83 205.56) rotate(-44.63)"/>
</svg>