<?xml version="1.0" encoding="UTF-8"?>
<svg id="Layer_1" data-name="Layer 1" xmlns="http://www.w3.org/2000/svg" viewBox="0 0 314.87 174.47">
  <defs>
    <style>
      .cls-1 {
        fill: #2e3a52;
      }

      .cls-2 {
        fill: #cddcf1;
      }

      .cls-3 {
        fill: #fe3229;
      }

      .cls-4 {
        fill: #3785ff;
      }

      .cls-5 {
        fill: #05ad49;
      }

      .cls-6 {
        fill: #fabc06;
      }

      .cls-7 {
        fill: none;
        stroke: #3785ff;
        stroke-miterlimit: 10;
        stroke-width: 3px;
      }
    </style>
  </defs>
  <path class="cls-7" d="m189.7,150.04H33.19c-17.34,0-31.4-14.06-31.4-31.4h0c0-17.34,14.06-31.4,31.4-31.4h156.51c17.34,0,15.45,14.83,15.45,32.17h0c0,17.34,1.9,30.64-15.45,30.64Z"/>
  <rect class="cls-1" x="186.38" y="44.43" width="128.17" height="129.7" rx="26.3" ry="26.3"/>
  <path class="cls-2" d="m282.57,44.43v82.98c0,17.58-14.59,31.82-32.59,31.82s-32.59-14.24-32.59-31.82V44.43h2.96v80.39c0,17.04,13.26,30.84,29.63,30.84s29.63-13.8,29.63-30.84V44.43h2.96Z"/>
  <rect class="cls-4" x="237.99" y="80.79" width="24.32" height="24.32" rx="12.16" ry="12.16"/>
  <path class="cls-4" d="m245.36,100.63l-5.9,24.42c-.75,3.1,1.6,6.09,4.79,6.09h11.8c3.19,0,5.54-2.99,4.79-6.09l-5.9-24.42c-1.21-5.03-8.37-5.03-9.58,0Z"/>
  <path class="cls-7" d="m218.94,44.43c-.43-15.11,2.57-33.11,18.57-40.11s37,2,41.85,18.99"/>
  <rect class="cls-5" x="142.24" y="104.28" width="29.94" height="29.94" rx="14.97" ry="14.97"/>
  <rect class="cls-3" x="101.24" y="104.28" width="29.94" height="29.94" rx="14.97" ry="14.97"/>
  <rect class="cls-6" x="60.24" y="104.28" width="29.94" height="29.94" rx="14.97" ry="14.97"/>
  <rect class="cls-2" x="19.47" y="104.28" width="29.94" height="29.94" rx="14.97" ry="14.97"/>
</svg>