<?xml version="1.0" encoding="UTF-8"?>
<svg id="Layer_1" data-name="Layer 1" xmlns="http://www.w3.org/2000/svg" viewBox="0 0 314.87 174.47">
  <defs>
    <style>
      .cls-1 {
        fill: #2e3a52;
      }

      .cls-2 {
        fill: #cddcf1;
      }

      .cls-3 {
        fill: #fe3229;
      }

      .cls-4 {
        fill: #05ad49;
      }

      .cls-5 {
        fill: #fabc06;
      }

      .cls-6 {
        fill: #3785ff;
        font-family: CascadiaMono-Regular, 'Cascadia Mono';
        font-size: 77.21px;
        font-variation-settings: 'wght' 400;
      }

      .cls-7 {
        fill: none;
        stroke: #3785ff;
        stroke-miterlimit: 10;
        stroke-width: 3px;
      }
    </style>
  </defs>
  <path class="cls-7" d="m189.7,150.04H33.19c-17.34,0-31.4-14.06-31.4-31.4h0c0-17.34,14.06-31.4,31.4-31.4h156.51c17.34,0,15.45,14.83,15.45,32.17h0c0,17.34,1.9,30.64-15.45,30.64Z"/>
  <rect class="cls-1" x="186.38" y="44.43" width="128.17" height="129.7" rx="26.3" ry="26.3"/>
  <path class="cls-2" d="m282.57,44.43v82.98c0,17.58-14.59,31.82-32.59,31.82s-32.59-14.24-32.59-31.82V44.43h2.96v80.39c0,17.04,13.26,30.84,29.63,30.84s29.63-13.8,29.63-30.84V44.43h2.96Z"/>
  <path class="cls-7" d="m218.94,44.43c-.43-15.11,2.57-33.11,18.57-40.11s37,2,41.85,18.99"/>
  <rect class="cls-4" x="142.24" y="104.28" width="29.94" height="29.94" rx="14.97" ry="14.97"/>
  <rect class="cls-3" x="101.24" y="104.28" width="29.94" height="29.94" rx="14.97" ry="14.97"/>
  <rect class="cls-5" x="60.24" y="104.28" width="29.94" height="29.94" rx="14.97" ry="14.97"/>
  <rect class="cls-2" x="19.47" y="104.28" width="29.94" height="29.94" rx="14.97" ry="14.97"/>
  <text class="cls-6" transform="translate(229.14 129.98)"><tspan x="0" y="0">?</tspan></text>
</svg>