<?xml version="1.0" encoding="UTF-8"?>
<svg id="Layer_1" data-name="Layer 1" xmlns="http://www.w3.org/2000/svg" viewBox="0 0 683.22 500.82">
  <defs>
    <style>
      .cls-1 {
        fill: #4d7fd7;
      }

      .cls-2 {
        fill: #fff;
      }

      .cls-3 {
        fill: #2e3a52;
      }

      .cls-4 {
        fill: #cddcf1;
      }

      .cls-5 {
        fill: #fe3229;
      }

      .cls-6 {
        fill: #3785ff;
      }

      .cls-7 {
        fill: #05ad49;
      }

      .cls-8 {
        fill: #fabc06;
      }

      .cls-9 {
        fill: #2b3c5b;
      }

      .cls-10 {
        fill: #2a4069;
      }

      .cls-11 {
        fill: #da79ef;
      }

      .cls-12 {
        fill: #202123;
      }

      .cls-13 {
        fill: #f4f9fd;
      }
    </style>
  </defs>
  <path class="cls-6" d="m394.28,172.98c-1.09-4.51-2.72-8.98-3.07-13.55-.2-2.55,1.72-5.26,2.69-7.89,2.31,1.55,5.36,2.61,6.76,4.75,3.11,4.77,5.4,10.09,8.53,16.17,0-5.37-.36-9.67.1-13.87.44-4.02.79-9.22,6.36-9.21,5.31.02,5.66,5.23,6.05,8.96.57,5.58.15,11.27,1.01,17.19,1.54-3.36,2.91-6.8,4.67-10.04,1.74-3.2,3.56-6.45,5.88-9.23,3.77-4.52,9.27-3.55,10.48,2.18.85,4,.33,8.6-.74,12.62-1.22,4.59-3.72,8.83-6.01,14.02,2.22-1.26,3.92-2.24,5.64-3.21,2.81-1.58,5.63-2.4,8.12.47,2.54,2.93,1.08,5.71-.82,8.12-2.01,2.54-4.42,4.78-7.21,7.74,4.44-.42,8.05-1.23,11.55-.9,2.06.2,5.47,2.13,5.56,3.46.12,2-1.71,4.67-3.49,6.08-1.94,1.55-4.76,1.99-8.07,3.25,3.47,1.32,6.41,1.98,8.77,3.52,1.51.99,2.92,3.28,2.92,4.99,0,1.02-2.73,2.8-4.34,2.92-3.09.25-6.26-.43-9.97-.85-.82-.05-1.07.03-1.32.11l.55.58c2.26,3.07,4.69,6.03,6.71,9.25,1.2,1.92,2.31,4.23,2.43,6.42.1,1.82-.83,4.41-2.21,5.37-1.03.72-4.06-.02-5.21-1.13-3.31-3.21-6.13-6.94-8.37-9.58-4.89,5-9.95,10.09-14.87,15.33-.73.78-.82,2.22-1.05,3.39-.08.41.35.91.54,1.37,2.19,5.21,3.08,12.05,6.95,15.17,3.66,2.95,10.44,2.21,15.89,2.7,15.49,1.4,30.47,4.65,45.03,10.32,22.63,8.82,37.35,24.96,45.32,47.47,3.77,10.64,6.69,21.57,9.99,32.37.38,1.25.75,2.51,1.45,4.86,2.78-4.4,5.12-7.96,7.32-11.61,6.06-10.04,12.6-19.72,17.45-30.57,2.92-6.54,8.99-11.71,13.85-17.31,2.05-2.37,4.64-4.27,7.43-6.8,8.71-9.5,12.31-20.62,14.52-32.36,1.22-3.22,2.37-6.48,3.69-9.66,3.14-7.58,8.79-9.53,16.05-5.72,1.07.56,2.53,1.13,3.58.85,7.11-1.91,11.95.88,15.53,7.28,5.71-1.22,10.23.62,13.34,5.85.43.73,1.92,1.04,2.96,1.15,8.21.84,12.17,4.55,11.94,12.88-.23,8.11-1.47,16.2-2.38,24.29-.24,2.11-.87,4.18-1.31,6.25,9.71,2.78,12.88,6.03,11.42,12.71-.67,3.07-2.38,6.44-4.68,8.5-3.53,3.16-7.73,5.87-12.08,7.77-7.83,3.41-14.42,8.03-19.37,15.08-2.27,3.23-5.15,6.03-7.69,8.95.34.57.44.96.67,1.08q7.38,3.71,4.11,11.46c-9.28,21.92-18.21,44.01-27.97,65.72-8.73,19.43-20.47,37.02-36.17,51.65-3.5,3.27-7.57,5.98-11.63,8.56-.9.58-2.85-.48-4.31-.79.35-1.46.21-3.63,1.13-4.27,27.22-18.83,41.01-47.08,53.51-76.19,6.44-14.99,12.41-30.18,18.77-45.21,1.31-3.09,1.13-4.59-2.29-5.98-20.05-8.16-40.02-16.5-59.95-24.94-3.59-1.52-5.61-1.47-8,2.33-15.6,24.82-31.53,49.43-47.36,74.1-.63.98-1.15,2.28-2.07,2.76-1.26.66-2.85.68-4.3.97-.26-1.5-1-3.12-.66-4.46.38-1.52,1.76-2.78,2.67-4.17,8.52-13.13,17.1-26.23,25.46-39.47,1.04-1.64,1.69-4.26,1.18-6.03-4.17-14.37-8.09-28.86-13.17-42.92-8.56-23.7-26.75-36.95-50.17-44.12-14.79-4.53-29.94-6.37-45.3-6.82-1.93-.06-4.25.78-5.81,1.96-14.9,11.38-33.26,11.41-48.05.06-1.46-1.12-3.57-2.08-5.33-2-30.3,1.27-56.97,10.84-78.04,33.73-10.02,10.88-15.55,23.9-19.65,37.73-3.26,11.01-6.43,22.05-9.43,33.14-.47,1.74-.31,3.97.37,5.65,3.02,7.4,6.37,14.66,9.54,22,1.02,2.37,3.05,5.38-.51,6.86-3.56,1.49-4.33-2.23-5.33-4.49-9.73-21.91-19.26-43.9-29.06-65.78-7.15-15.95-14.61-31.77-21.96-47.63-.62-1.34-1.45-2.58-2.43-4.31-7.94,3.28-15.74,6.5-23.55,9.72-14.16,5.83-28.3,11.74-42.52,17.43-2.82,1.13-3.87,2.63-3.39,5.61,5.97,36.76,8.71,74.19,22.01,109.42,3.44,9.12,8.11,17.9,13.21,26.23,6.97,11.37,17.04,19.5,29.73,24.1,2.4.87,5.41,1.78,3.76,4.96-.55,1.05-4.13,1.39-5.9.8-17.59-5.91-29.23-18.6-38-34.32-10.27-18.4-16.03-38.42-19.68-58.96-4.46-25.07-7.96-50.31-11.98-75.45-.54-3.38.47-5.37,3.68-6.56,3.39-1.25,6.67-2.76,10.7-4.46-11.42-7.48-16.11-18.24-18.75-30.3-.22-1-2.29-2.34-3.43-2.27-14.28.82-22.15-19.05-18.88-29.05.54-1.66,1.65-3.72,3.07-4.39,4.06-1.93,5.56-5.51,7.74-9.03,3.4-5.5,7.66-10.54,12.06-15.31,2.15-2.34,5.44-3.63,8.82-5.79-.59-.84-1.45-2.08-2.11-3.89,1.67-1.25,3.12-1.94,4.85-2.76-1.6-1.98-3.28-3.47-4.17-5.34-.85-1.78-.89-3.95-1.28-5.94,2.16-.36,4.74-1.64,6.39-.89,4.3,1.95,8.19,4.79,11.93,7.45-4.05,1.73-7.78,3.29-11.38,4.79,4.81,6.89,9.94,12.93,13.54,19.77,3.58,6.79,7.46,12.76,14.41,16.41,1.42.74,2.66,2.08,3.58,3.42.54.78.75,2.53.25,3.11-.71.83-2.27,1.46-3.34,1.31-1.17-.16-2.16-1.39-3.31-2.03-5.78-3.19-11.5-6.53-17.46-9.34-1.28-.6-3.49.78-5.27,1.24.48,1.64.46,3.85,1.54,4.8,3.48,3.05,7.27,5.76,11.11,8.36,5.54,3.74,5.79,4.13,1.31,8.86-3.99,4.21-5.54,9.09-4.59,14.63.44,2.55,2.09,4.88,2.7,7.42.35,1.46-.28,3.16-.47,4.75-1.57-.52-3.34-.76-4.64-1.67-.98-.68-1.73-2.17-1.93-3.41-.96-5.93-1.71-11.9-2.51-17.74-3.43,1.9-7.73,4.18-11.89,6.69-.53.32-.59,1.86-.46,2.78,1.37,9.82,4.7,18.77,12.53,25.33,4.16,3.48,8.78,5.09,14.26,2.36,4.46-2.22,9.2-3.87,13.81-5.78,9.02-3.74,18.04-7.49,27.01-11.21-.29-1.34-.31-2.04-.59-2.62-9.1-18.87-17.68-38.02-27.59-56.46-4.97-9.25-12.38-17.19-18.45-25.99,1.69-.94,3.15-1.6,5.17-2.52-6.89-5.92-13.31-11.68-22.72-11.5-7.68.15-11.81,6.13-9.05,13.26,1.11,2.86,3.13,5.36,4.74,8.03-9.89,3.87-19.74,7.83-29.67,11.59-12.29,4.66-24.64,9.16-36.96,13.75-7.97,2.97-11.81,1.37-14.79-6.46-2.42-6.37-4.61-12.83-6.84-20.01,14.13-30.59,28.19-60.42,42.31-90.38,1.95.85,3.17,1.35,4.37,1.9,27.24,12.35,54.49,24.66,81.71,37.07,15.11,6.89,30.15,13.93,45.22,20.91-13.33,5.14-26.66,10.29-40.01,15.4-5.71,2.19-11.47,4.27-16.83,6.27,6.64,9.8,13.98,18.93,19.42,29.08,8.73,16.27,16.21,33.2,24.18,49.87,1.32,2.76,1.85,5.89,6.09,6.16,1.26.08,2.66,2.74,3.46,4.47,11.48,24.96,22.86,49.96,34.28,74.96,1.07,2.35,2.16,4.69,4.42,6.95,1.85-6.32,3.64-12.65,5.58-18.95,2.25-7.32,4.1-14.81,7.03-21.85,12.38-29.79,35.33-47.8,65.64-56.72,9.5-2.79,19.55-4.01,29.45-5,4.52-.45,7.2-1.4,8.09-5.98.25-1.27,1.03-2.44,1.94-4.13.58-.74.67-1.04.64-1.38,0,0,.04.13.28-.06.4-.9.55-1.6.7-2.31-.12-.33-.11-.65.37-1.34.42-.68.52-1,.62-1.31,0,0,.02.14.27-.03.43-1.07.61-1.97.8-2.87,0,0,.04.09.29-.12.05-1.69-.15-3.17-.35-4.65,0,0,.16.02.02-.18-.68-.44-1.22-.67-1.76-.91,0,0-.02.02-.15-.21-.35-.49-.63-.66-.97-.75-.33-.05-.59-.21-.97-.94-.47-.65-.75-.85-1.02-1.05,0,0,.08-.02.03-.31-.49-.67-.92-1.06-1.36-1.44,0,0,.08.07.16-.33.13-1.25.19-2.1.54-2.81,1.11.37,1.92.61,3.08.86.8,0,1.26-.02,2.02.13,19.62,18.24,45.27,4.82,48.24-12.18-1.95-.62-3.98-1.19-5.96-1.91-14.28-5.16-26.36-13.39-35.19-25.89-2.38-3.37-4.58-3.9-6.75-.39-2.85,4.6-5.24,9.48-8.04,14.24-.22,0-.66,0-.91-.24-1.42-.42-2.59-.59-3.77-1.19-.06-.99-.11-1.56-.16-2.13,0,0-.13-.21.23-.54.5-1.05.63-1.76.77-2.47.02-.33.04-.67.38-1.37.54-.63.65-.93.64-1.27,0,0-.03.08.31.04.83-1.33,1.31-2.62,1.79-3.9,0,0,.05.08.36,0,.76-1.05,1.2-2.03,1.65-3-.83-.48-1.66-.96-2.95-1.92-3.64-1.31-6.82-2.15-10-2.99,0,0,0,0-.03-.31-.47-.69-.9-1.07-1.34-1.45,0,0,.06-.24.15-.54.15-1.74.2-3.18.26-4.62,0,0-.03-.07.4-.06,7.52-.34,14.6-.69,21.69-1.03.02-.37.04-.74.06-1.11-.83-.25-1.66-.5-2.49-.75-4.39-3.11-9.19-5.8-12.97-9.53-1.58-1.56-1-5.31-1.4-8.06,2.61-.27,5.85-1.64,7.72-.59,5.86,3.29,11.21,7.5,17.2,11.7.81.5,1.17.64,1.54.78-.18-.55-.37-1.09-.55-1.64m-11.21,94.23s.08.01-.46.43c-.13.66-.26,1.31-.32,2.61.09.32.09.7.27.94,7.87,10.05,31.72,11.06,40.08,1.61.66-.75.9-2.46.54-3.42-1.92-5.14-4.17-10.16-6.17-15.27-1.06-2.72-2.64-2.81-5.42-2.57-5.23.46-10.78.8-15.77-.48-4.62-1.19-6.43-.09-7.55,3.97-.21.78-.72,1.47-1.42,2.31-.08.08-.24.18-.22.23.05.2.16.39.21,1.22-.53,1.15-1.06,2.29-2.17,3.81-.16.65-.32,1.29-.45,2.27,0,0-.14.3-.62.68-.17.57-.33,1.14-.55,1.65m257.93,5.24c-.1-3.65.38-7.46-.55-10.89-.48-1.77-3.46-2.86-5.31-4.26-.76,1.05-2.14,2.07-2.2,3.16-.79,14.35-6.69,27.02-12.92,39.55-.72,1.45-3.13,2.07-4.75,3.07-.21-2.02-1.13-4.3-.5-6.01,2.54-6.85,5.86-13.42,8.29-20.31,1.58-4.49,2.36-9.31,3.06-14.04.44-2.96.34-6.5-3.45-7.34-4.08-.89-4.78,2.74-5.76,5.5-1.06,2.98-1.97,6.01-2.8,9.06-4.52,16.52-11.11,31.62-25.93,41.93-6.41,4.46-10,11.36-12.94,18.62-1.63,4.03-.91,5.88,3.09,7.5,16.81,6.81,33.48,13.95,50.31,20.72,1.49.6,4.34.07,5.46-1.05,14.01-13.92,25.5-29.64,30.46-49.03,2.45-9.58,3.29-19.61,4.31-29.49.39-3.75-1.13-7.27-6.56-6.72-.15,1.68-.11,3.19-.44,4.61-2.68,11.62-5.33,23.26-8.23,34.82-.56,2.22-1.62,5.58-4.92,3.8-1.06-.57-1.19-4.05-.77-5.98,2.39-11.01,5.3-21.91,7.5-32.95.58-2.89-.45-6.25-1.38-9.2-.34-1.08-2.52-2.1-3.89-2.14-.81-.02-2.09,1.8-2.44,3.01-.55,1.88-.51,3.94-.68,5.93-.96,11.53-3.3,22.73-8.41,33.17-.64,1.32-2.97,1.81-4.52,2.69-.4-1.66-1.62-3.69-1.07-4.93,4.53-10.17,6.72-20.86,7.9-32.77m-482.27-41.38c-1.04-1.7-2.01-3.44-3.12-5.1-3.09-4.63-7.97-5.77-12.21-2.13-2.36,2.03-4.55,5.13-5.2,8.11-2.43,11.16,1.81,20.51,9.49,28.4,1.01,1.04,3.43.71,5.2,1.01.11-2.19.48-4.4.22-6.54-.11-.88-1.63-1.55-2.42-2.4-3.3-3.53-5.93-7.35-3.94-12.48,1.84-4.75,5.71-6.03,10.47-5.88.6.02,1.26-1.53,1.52-2.99m-26.81,12.04c-.33-1.06-.65-2.12-1.35-4.39-3.24,9.13-1.54,16.4,2.93,23.08,2.4,3.58,5.68,6.36,11.48,5-6.96-6.59-11.24-14.08-13.06-23.7m535.18,77.69c-1.78,3.91-3.57,7.82-5.35,11.74.4.36.79.71,1.19,1.07,4.17-3.12,8.68-5.89,12.33-9.54,1.21-1.21,1.2-5.46.01-6.87-1.95-2.32-4.83-1.11-6.75,1.27-.41.51-.72,1.11-1.44,2.32m-540.12-50.93c2.04.81,4.08,1.62,5.45,2.16-3.8-7.43-7.46-14.59-10.98-21.46-3.33,3.5-1.48,11.85,5.53,19.3Z"/>
  <path class="cls-5" d="m329.64,87.75c-7.32,15.57-19.1,25.09-36.41,27.75-23.19,3.56-47.62-14.21-51.07-37.5-4.32-29.17,17.37-53.77,46.83-52.79,11.35.38,21.41,4.48,29.76,13.08-11.62,17.94-6.98,38.83,10.77,49.05.02.14.12.41.12.41Z"/>
  <path class="cls-8" d="m470.83,54.02c21.21-6.56,16.79-6.08,30.72,6.7,3.43,3.15,6.76,6.4,10.15,9.59,2.93,2.75,3.89,5.99,2.91,9.95-2,8.05-3.88,16.14-5.77,24.22-1,4.25-3.42,6.97-7.75,8.18-7.99,2.23-15.92,4.68-23.86,7.06-3.84,1.15-7.2.44-10.12-2.34-6.27-5.96-12.87-11.61-18.65-18-1.98-2.19-3.05-6.38-2.59-9.36,1.23-8.01,3.61-15.84,5.35-23.79,1.07-4.92,3.79-7.9,8.73-9.07,3.55-.84,7.01-2.02,10.9-3.15Z"/>
  <path class="cls-7" d="m552.29,140.19c10.8.67,17.59,6.32,21.75,16.25,5.58,13.34,12.03,26.32,17.75,39.6,6.75,15.69-4.49,30.94-21.35,29.21-6.99-.72-12.31-4.44-15.27-10.67-7.14-15.02-14.07-30.13-20.72-45.37-2.71-6.21-2.38-12.67,2.01-18.92,3.8.71,6.92,1.88,10.14,2.66,4.91,1.19,7.72-1.55,6.88-6.59-.29-1.76-.96-3.46-1.4-5.44.1-.41.15-.57.21-.74Z"/>
  <path class="cls-6" d="m331.8,411.89c-.87,7.75-1.86,15.01-2.47,22.3-.23,2.76.14,5.66.76,8.38,1.01,4.38,3.62,6.52,8.57,6.5,43.66-.15,87.31-.12,130.97,0,3.93.01,6.81-1.14,7.52-4.9,1.27-6.79,2.57-13.68,2.77-20.56.43-14.8.26-29.61.15-44.42-.09-10.65-.6-21.29-.63-31.94,0-1.68,1.6-3.37,2.46-5.06,1.29,1.42,3.61,2.78,3.71,4.28.64,10.13,1.02,20.28,1.09,30.43.12,16.31-.12,32.62-.1,48.93.01,8.07-.71,15.89-4.46,23.3-.96,1.89-.88,4.8-.23,6.92,3.75,12.24,7.92,24.36,11.67,36.6.79,2.57,2.84,6.66-1.27,7.75-4.75,1.26-4-3.64-4.89-6.34-3.91-11.84-7.83-23.69-11.55-35.59-1.2-3.84-4.07-3.25-6.82-3.25-42.49,0-84.98.14-127.47-.14-5.68-.04-8.64,1.59-11.01,6.72-4.95,10.7-8.29,21.74-9.46,33.45-.25,2.49-.12,5.65-3.66,5.34-3.46-.31-2.95-3.23-2.71-5.84,1.29-13.96,5.44-27.02,11.97-39.4.64-1.21.94-3.4.28-4.35-4.03-5.71-4.26-12.03-3.99-18.65.84-20.27,1.6-40.55,2.15-60.83.38-13.81.32-27.64.55-41.46.04-2.45.08-5.76,3.68-5.03,1.19.24,2.5,3.53,2.5,5.44.11,26.98,0,53.96-.07,81.41Z"/>
  <path class="cls-6" d="m329.96,87.86c-.33-.11-.43-.38-.22-.8.77-2.07,1.34-3.72,2.05-5.41.14-.04.36-.24.67.01,8.79,4.27,17.48,5.07,25.66.08,12.36-7.54,24.68-8.54,38.1-2.81,3.72,1.59,9.05,1.37,13.02.06,8.95-2.95,13.07-12.35,10.53-21.54-2.38-8.58-11.46-14.33-20.88-11.86-14.28,3.74-26.23.58-37.68-8.54-11.79-9.39-27.69-6.55-37.36,5.5-.16-.02-.48.03-.73-.22-1.21-1.55-2.17-2.84-3.13-4.14,6.43-10.81,23.13-16.04,36.27-11.08,3.53,1.33,7.08,3.14,9.97,5.52,9.01,7.42,18.61,9.81,30.21,6.84,12.04-3.09,22.33,1.88,27.58,11.72,4.79,8.97,3.74,19.68-2.67,27.12-6.94,8.06-17.58,10.72-27.7,6.92-6.86-2.57-13.68-5.71-21.23-2.89-3.11,1.16-6.19,2.5-9.06,4.15-10.79,6.21-21.78,6.47-33.36,1.38Z"/>
  <path class="cls-6" d="m410.83,359.02c-.36-10.19-.73-19.98-.7-29.77,0-1.06,2.27-3.01,3.51-3.03,13.81-.22,27.62-.13,41.44-.16,3.02,0,4.11,1.59,4.09,4.39-.06,7.99.22,15.99-.17,23.96-.55,11.1-10.09,20.23-21.18,20.83-14.11.76-22.19-4-26.97-16.23m27.97,9.79c6.95-1.48,12.4-5.37,13.26-12.47.95-7.77.22-15.75.22-23.77h-36.03c0,7.61-.55,14.94.15,22.15.72,7.39,6.91,15.74,22.4,14.1Z"/>
  <path class="cls-11" d="m607.86,265.75c-2.01,11.99-5.61,23.12-14.18,32.28-15.36-12.6-18.79-30.58-9.03-45.61,3.44-5.3,5.1-5.44,9.46-.9,4.5,4.68,9.03,9.32,13.75,14.23Z"/>
  <path class="cls-4" d="m552.18,139.78c.05.57,0,.73-.51,1.15-2.23,1.47-3.91,2.88-5.82,3.84-3.2,1.62-6.54,2.96-9.81,4.41-5.03-1.6-10.13-3.01-15.07-4.86-4.48-1.67-5.38-5.69-1.91-8.91,6.67-6.2,13.49-12.25,20.45-18.13,3.51-2.97,7.54-1.44,8.62,3.14,1.47,6.28,2.65,12.63,4.06,19.35Z"/>
  <path class="cls-13" d="m319.72,38.2c1.21,1.28,2.18,2.58,3.3,4.46-1.26,4.78-3.4,8.88-3.95,13.18-1.42,11.15,3.93,19.39,12.57,25.86-.57,1.65-1.13,3.3-1.93,5.23-17.95-9.8-22.59-30.69-10.84-48.32.1-.32.59-.39.84-.4Z"/>
  <rect class="cls-6" x="25.82" y="24.89" width="188.06" height="188.06" rx="9.48" ry="9.48" transform="translate(-34.32 50.1) rotate(-20.72)"/>
  <path class="cls-13" d="m142.38,210.49c-1.86-2.72-3.89-5.22-5-8.08-2.76-7.13,1.36-13.11,9.05-13.26,9.4-.18,15.82,5.58,22.72,11.5-2.02.92-3.48,1.59-5.44,2.47-.86.18-1.23.14-1.6.09-4.05-2.49-7.94-5.33-12.24-7.28-1.66-.75-4.23.54-6.39.89.4,2,.43,4.16,1.28,5.94.89,1.86,2.57,3.35,4.17,5.34-1.73.82-3.18,1.51-4.96,2.42-.66.15-1,.09-1.6-.04Z"/>
  <path class="cls-13" d="m536.13,149.38c3.19-1.65,6.53-2.99,9.73-4.61,1.91-.96,3.59-2.37,5.77-3.59.9,1.72,1.56,3.42,1.85,5.18.84,5.04-1.97,7.78-6.88,6.59-3.22-.78-6.34-1.95-9.89-2.95-.38,0-.5-.42-.58-.62Z"/>
  <path class="cls-6" d="m371.04,210.18c1.17.17,2.34.34,3.59,1.14-1.09,5.99-.92,11.16,2.42,16.05.08.18.12.57.11.9.32.87.65,1.4,1.06,2.05.08.11.05.38.01.75.66,1.24,1.35,2.1,2,2.98-.04.01-.04-.08.03.25.31,1.18.55,2.03.78,2.89-.81-.24-1.63-.49-3-1.11-1.51-.4-2.47-.41-3.43-.43,0,0,0-.1.03-.39-.21-.54-.46-.78-.71-1.03,0,0,.07-.01,0-.2-.19-.46-.39-.67-.66-.82,0,0-.27-.36-.31-.9-.37-1.07-.7-1.6-1.03-2.13,0,0-.18-.2-.1-.8-.22-6.8-.52-13-.82-19.2Z"/>
  <path class="cls-1" d="m382.52,180.59c1.07-.02,1.89.23,2.72.48-.02.37-.04.74-.06,1.11-7.09.35-14.17.7-21.66,1.05,3.85-.85,8.08-1.85,12.36-2.49,2.08-.31,4.26.06,6.63-.14Z"/>
  <path class="cls-6" d="m371.03,209.76c.31,6.63.62,12.83.87,19.5-3.53-6.48-3.57-13.66-1.3-21.31.32.25.37.82.44,1.81Z"/>
  <path class="cls-1" d="m364.22,190.51c3,.53,6.18,1.37,9.58,2.5-2.99-.53-6.19-1.36-9.58-2.5Z"/>
  <path class="cls-6" d="m374.72,235.95c.88-.29,1.84-.28,3.06,0,.21,1.1.15,1.95-.04,3.2-1.07-.69-2.01-1.79-3.02-3.2Z"/>
  <path class="cls-1" d="m362.81,183.4c.22,1.31.17,2.74,0,4.61-.17-1.21-.23-2.84,0-4.61Z"/>
  <path class="cls-1" d="m374.7,198.28c-.2,1.11-.68,2.4-1.54,3.7.17-1.17.72-2.35,1.54-3.7Z"/>
  <path class="cls-1" d="m376.73,195.28c-.18.8-.63,1.78-1.42,2.81.15-.84.66-1.74,1.42-2.81Z"/>
  <path class="cls-1" d="m383.91,245.67c.11,1.08.31,2.56.22,4.26-.24-1.14-.18-2.5-.22-4.26Z"/>
  <path class="cls-1" d="m383.63,250.25c.08.68-.11,1.58-.61,2.64-.1-.7.13-1.56.61-2.64Z"/>
  <path class="cls-1" d="m362.71,188.73c.39.08.83.47,1.29,1.16-.39-.08-.82-.47-1.29-1.16Z"/>
  <path class="cls-1" d="m377.68,239.77c.38.09.82.48,1.29,1.18-.4-.08-.81-.49-1.29-1.18Z"/>
  <path class="cls-1" d="m382.22,244.43c.39-.02.93.21,1.59.73-.4.03-.92-.22-1.59-.73Z"/>
  <path class="cls-1" d="m371.6,204.87c.12.45-.01,1.17-.43,2.12-.13-.46.02-1.16.43-2.12Z"/>
  <path class="cls-1" d="m371.96,230.51c.33.2.66.73.99,1.58-.33-.2-.66-.73-.99-1.58Z"/>
  <path class="cls-1" d="m381.57,255.82c.11.46-.04,1.17-.51,2.07-.13-.48.06-1.15.51-2.07Z"/>
  <path class="cls-1" d="m380.63,258.07c.25.21.16.52-.24.94-.12-.17-.05-.49.24-.94Z"/>
  <path class="cls-1" d="m382.59,253.05c.13.18.03.5-.26.97-.12-.17-.04-.51.26-.97Z"/>
  <path class="cls-1" d="m372.65,202.08c.24.23.13.53-.29.93-.11-.17-.03-.49.29-.93Z"/>
  <path class="cls-1" d="m381.05,243.47c.23-.15.51.02.87.49-.17.06-.47-.09-.87-.49Z"/>
  <path class="cls-1" d="m379.04,241.49c.2-.06.47.14.86.57-.19.05-.48-.13-.86-.57Z"/>
  <path class="cls-1" d="m373.98,234.5c.22-.02.47.23.73.74-.23.02-.46-.23-.73-.74Z"/>
  <path class="cls-1" d="m373.3,233.45c.27-.09.46.13.64.62-.28.13-.51-.07-.64-.62Z"/>
  <path class="cls-3" d="m640.99,272.92c-1.16,11.44-3.35,22.13-7.88,32.31-.55,1.24.67,3.27,1.07,4.93,1.55-.88,3.88-1.37,4.52-2.69,5.1-10.44,7.45-21.64,8.41-33.17.17-1.99.13-4.05.68-5.93.35-1.2,1.62-3.03,2.44-3.01,1.37.04,3.55,1.06,3.89,2.14.93,2.94,1.95,6.31,1.38,9.2-2.2,11.04-5.11,21.94-7.5,32.95-.42,1.94-.29,5.41.77,5.98,3.29,1.78,4.36-1.58,4.92-3.8,2.9-11.57,5.55-23.2,8.23-34.82.33-1.42.29-2.93.44-4.61,5.42-.55,6.95,2.97,6.56,6.72-1.03,9.88-1.86,19.91-4.31,29.49-4.96,19.39-16.45,35.11-30.46,49.03-1.12,1.11-3.98,1.64-5.46,1.05-16.82-6.77-33.5-13.91-50.31-20.72-4-1.62-4.73-3.46-3.09-7.5,2.94-7.26,6.53-14.16,12.94-18.62,14.81-10.31,21.4-25.4,25.93-41.93.83-3.05,1.74-6.08,2.8-9.06.98-2.76,1.68-6.4,5.76-5.5,3.8.83,3.89,4.37,3.45,7.34-.7,4.74-1.48,9.56-3.06,14.04-2.43,6.89-5.75,13.46-8.29,20.31-.63,1.71.29,3.99.5,6.01,1.62-1,4.03-1.62,4.75-3.07,6.23-12.53,12.13-25.2,12.92-39.55.06-1.09,1.44-2.11,2.2-3.16,1.85,1.4,4.83,2.49,5.31,4.26.93,3.43.45,7.24.53,11.36Z"/>
  <path class="cls-3" d="m161.8,203.38c.68-.13,1.05-.09,1.68,0,6.57,8.58,13.98,16.52,18.95,25.77,9.91,18.44,18.49,37.59,27.59,56.46.28.58.3,1.28.59,2.62-8.96,3.72-17.98,7.47-27.01,11.21-4.61,1.91-9.36,3.55-13.81,5.78-5.48,2.73-10.1,1.12-14.26-2.36-7.84-6.56-11.16-15.51-12.53-25.33-.13-.92-.07-2.46.46-2.78,4.16-2.51,8.46-4.79,11.89-6.69.8,5.84,1.55,11.81,2.51,17.74.2,1.24.95,2.72,1.93,3.41,1.3.91,3.07,1.14,4.64,1.67.19-1.59.82-3.29.47-4.75-.61-2.54-2.26-4.87-2.7-7.42-.95-5.54.6-10.42,4.59-14.63,4.48-4.73,4.23-5.11-1.31-8.86-3.84-2.6-7.64-5.31-11.11-8.36-1.08-.95-1.06-3.17-1.54-4.8,1.78-.47,3.99-1.85,5.27-1.24,5.96,2.81,11.68,6.15,17.46,9.34,1.14.63,2.13,1.86,3.31,2.03,1.07.15,2.63-.48,3.34-1.31.5-.58.28-2.32-.25-3.11-.92-1.34-2.16-2.67-3.58-3.42-6.95-3.65-10.84-9.61-14.41-16.41-3.6-6.84-8.73-12.88-13.54-19.77,3.6-1.5,7.33-3.06,11.38-4.79Z"/>
  <path class="cls-3" d="m378.28,230.7s.02-.27-.07-.7c-.41-.98-.72-1.52-1.03-2.06,0,0-.03-.39-.14-.97-.53-3.7-.96-6.81-1.38-9.93,2.31.76,3.46,1.89,4.65,2.95,3.96,3.54,8.7,4.86,13.8,4,1.45-.24,2.6-2.28,3.89-3.49-1.44-.96-2.77-2.26-4.36-2.78-2.13-.69-4.62-.36-6.66-1.2-3.77-1.56-6.02-6.29-11.05-5.34,2.59-4.76,4.98-9.65,7.82-14.25,2.17-3.51,4.37-2.98,6.75.39,8.84,12.5,20.91,20.73,35.19,25.89,1.98.72,4.01,1.29,5.96,1.91-2.97,16.99-28.63,30.42-48.37,11.88-1.31-1.32-2.2-2.18-3.09-3.05,0,0,0,.09,0-.25-.64-1.24-1.28-2.13-1.92-3.02Z"/>
  <path class="cls-3" d="m387.2,257.24c.37-.73.88-1.43,1.1-2.2,1.12-4.06,2.93-5.16,7.55-3.97,4.99,1.28,10.54.95,15.77.48,2.78-.25,4.36-.15,5.42,2.57,2,5.11,4.24,10.13,6.17,15.27.36.96.12,2.67-.54,3.42-8.36,9.45-32.21,8.44-40.08-1.61-.19-.24-.19-.62-.09-1.51.35-1.2.51-1.83.67-2.46,0,0-.08-.01.18-.17.43-.73.6-1.3.76-1.87,0,0,.14-.3.35-.7.41-1.01.61-1.63.81-2.24.53-1.15,1.06-2.29,1.73-3.98.14-.54.2-1.03.2-1.03Z"/>
  <path class="cls-9" d="m158.92,231.4c-.45,1.14-1.1,2.69-1.7,2.67-4.75-.15-8.63,1.12-10.47,5.88-1.99,5.13.64,8.96,3.94,12.48.79.85,2.31,1.52,2.42,2.4.27,2.14-.1,4.36-.22,6.54-1.77-.3-4.19.03-5.2-1.01-7.68-7.89-11.93-17.23-9.49-28.4.65-2.97,2.84-6.08,5.2-8.11,4.24-3.64,9.12-2.5,12.21,2.13,1.11,1.66,2.08,3.4,3.3,5.42Z"/>
  <path class="cls-6" d="m375.71,211.19c5.25-.96,7.5,3.78,11.27,5.34,2.03.84,4.53.51,6.66,1.2,1.59.52,2.92,1.82,4.36,2.78-1.29,1.21-2.44,3.25-3.89,3.49-5.1.86-9.84-.47-13.8-4-1.2-1.07-2.34-2.19-4.65-2.95.43,3.12.85,6.23,1.3,9.75-3.24-4.31-3.41-9.48-2.06-15.22.16-.37.61-.38.83-.38Z"/>
  <path class="cls-10" d="m131.97,243.5c1.77,9.23,6.06,16.72,13.02,23.32-5.8,1.36-9.08-1.42-11.48-5-4.47-6.68-6.17-13.96-2.93-23.08.7,2.27,1.02,3.33,1.39,4.77Z"/>
  <path class="cls-10" d="m667.29,320.48c.54-.89.85-1.48,1.26-1.99,1.92-2.38,4.79-3.59,6.75-1.27,1.18,1.41,1.2,5.66-.01,6.87-3.65,3.64-8.16,6.42-12.33,9.54-.4-.36-.79-.71-1.19-1.07,1.78-3.91,3.57-7.82,5.53-12.07Z"/>
  <path class="cls-10" d="m126.71,269.63c-6.73-7.2-8.58-15.56-5.25-19.06,3.51,6.87,7.18,14.03,10.98,21.46-1.37-.54-3.41-1.35-5.73-2.4Z"/>
  <path class="cls-6" d="m380.28,234.3c.82.54,1.71,1.4,2.72,2.56-.33.31-.79.32-1.6.33-.58-.85-.82-1.71-1.13-2.89Z"/>
  <path class="cls-12" d="m394.08,173.16c.39.37.57.91.76,1.46-.36-.14-.73-.28-1.22-.66,0-.37.13-.49.46-.8Z"/>
  <path class="cls-1" d="m382.89,267.43c.1.42-.06,1.05-.44,1.93-.09-.41.04-1.06.44-1.93Z"/>
  <path class="cls-1" d="m384.98,262.43c.09.43-.11,1.04-.54,1.89-.07-.41.09-1.06.54-1.89Z"/>
  <path class="cls-1" d="m383.86,265.38c.07.38-.09.96-.5,1.71-.07-.38.09-.95.5-1.71Z"/>
  <path class="cls-12" d="m445.01,221.23c-.31-.07-.5-.26-.68-.45.25-.08.5-.16.91-.08.15.16-.1.41-.23.54Z"/>
  <path class="cls-1" d="m387.03,257.3c.16-.05.09.44-.02.65-.2.02-.31-.16-.37-.37-.01-.06.14-.15.39-.29Z"/>
  <path class="cls-5" d="m323.83,42.55c5.41,9.09,9.74,18.46,9.11,29.32-.17,2.95-.62,5.89-.87,9.19.08.36-.14.56-.28.6-8.78-6.42-14.14-14.67-12.71-25.82.55-4.3,2.69-8.4,4.19-12.92.09-.33.41-.38.57-.36Z"/>
  <path class="cls-1" d="m378.24,231.07c.68.52,1.32,1.41,2,2.63-.65-.53-1.34-1.4-2-2.63Z"/>
  <path class="cls-1" d="m377.16,228.27c.33.21.64.76.97,1.62-.32-.22-.65-.75-.97-1.62Z"/>
  <path class="cls-2" d="m144.18,76.68c3.52-1.3,8.47-2.13,14.83-2.5.76-.05,1.35-.15,1.76-.3.34-.13,1.25-.81,2.74-2.06.47-.41,1.02-.73,1.63-.95,2.29-.85,5.38.07,9.27,2.76,3.89,2.69,6.44,5.67,7.65,8.96.71,1.92.73,3.74.07,5.49-.66,1.74-1.81,2.91-3.45,3.52-1.37.51-2.58.64-3.64.41-1.06-.23-3.54-1.16-7.45-2.79-5.52-2.32-10.27-2.74-14.24-1.28-1.92.71-3.28,1.74-4.08,3.08-.81,1.35-.93,2.77-.37,4.28,1.1,2.98,4.54,4.25,10.34,3.83,7.86-.53,12.95-.68,15.29-.45,10.29,1.02,16.96,5.66,20.01,13.9,2.69,7.29,1.91,14.34-2.34,21.16-4.35,6.97-11.43,12.27-21.26,15.9-4.38,1.62-9.19,2.8-14.44,3.55-5.25.75-9.2.82-11.88.21-2.05-.49-4.41-2.33-7.08-5.52-2.68-3.19-4.66-6.53-5.95-10.02-.62-1.68-.74-3.07-.38-4.18.45-1.41,1.33-2.36,2.63-2.84,1.3-.48,2.8-.27,4.49.62,1,.49,3.58,2.27,7.75,5.36,1.97,1.45,4.57,2.3,7.79,2.55,3.22.25,6.31-.17,9.25-1.26,2.53-.94,4.41-2.16,5.64-3.69,1.23-1.52,1.57-3.02,1.03-4.49-.51-1.37-1.56-2.32-3.16-2.86-1.6-.54-3.94-.72-7.03-.55-5.46.27-9.71.23-12.75-.1-3.04-.34-6.03-1.07-8.98-2.2-7.18-2.79-11.89-7.24-14.14-13.33-1.11-3.01-1.49-6.21-1.15-9.58.35-3.38,1.42-6.58,3.22-9.62,3.97-6.95,10.09-11.95,18.38-15.01Z"/>
  <rect class="cls-2" x="30.88" y="58.56" width="141.67" height="6.03" rx="3.01" ry="3.01" transform="translate(-15.21 39.97) rotate(-20.72)"/>
  <rect class="cls-2" x="43.03" y="97.88" width="62.72" height="6.03" rx="3.01" ry="3.01" transform="translate(-30.89 32.85) rotate(-20.72)"/>
  <rect class="cls-2" x="53.03" y="125.46" width="50.07" height="6.03" rx="3.01" ry="3.01" transform="translate(-40.41 35.93) rotate(-20.72)"/>
  <rect class="cls-2" x="63.75" y="153.81" width="50.05" height="6.03" rx="3.01" ry="3.01" transform="translate(-49.75 41.55) rotate(-20.72)"/>
  <rect class="cls-2" x="73.3" y="178.29" width="58.33" height="6.03" rx="3.01" ry="3.01" transform="translate(-57.52 47.98) rotate(-20.72)"/>
</svg>