<?xml version="1.0" encoding="UTF-8"?>
<svg id="Layer_1" data-name="Layer 1" xmlns="http://www.w3.org/2000/svg" viewBox="0 0 288.89 169.46">
  <defs>
    <style>
      .cls-1 {
        fill: #fff;
      }

      .cls-2 {
        fill: #fe3229;
      }

      .cls-3 {
        fill: #05ad49;
      }

      .cls-4 {
        fill: #fabc06;
      }

      .cls-5 {
        fill: #2e86fc;
      }

      .cls-6 {
        fill: #fbbc04;
      }

      .cls-7 {
        fill: #4285f4;
      }

      .cls-8 {
        fill: #c5221f;
      }

      .cls-9 {
        fill: #34a853;
      }

      .cls-10 {
        fill: #ea4335;
      }
    </style>
  </defs>
  <path class="cls-5" d="m116.7,169.46c-33.54,0-66.49,0-99.5,0-3.05,0-5.59-2.35-5.84-5.39-1.33-16.42-2.61-32.53-3.96-48.64C5.03,86.83,2.67,58.22.17,29.63c-.93-10.66,1.92-14.05,12.73-14.05,60.7-.01,121.39,0,182.09,0,11.81,0,14.65,2.9,15.59,14.55,3.29,40.52,6.72,81.02,10.17,122.24.25,3.03,2.79,5.37,5.83,5.37h54.5c3.23,0,5.85,2.62,5.85,5.85h0c0,3.23-2.62,5.85-5.85,5.85-54.57,0-109.18,0-164.38,0m-85.34-18.59h171c3.24,0,5.88-2.63,5.85-5.87,0-.68-.03-1.31-.09-1.93-3.15-34.48-6.45-68.95-9.41-103.45-.6-7.02-6.47-12.4-13.52-12.38-55.45.18-110.89.1-166.34.12-.1,0-.19,0-.29,0-3.4.04-6.04,3.02-5.72,6.41,3.46,37.56,6.86,74.53,10.28,111.77.28,3.01,2.81,5.32,5.83,5.32h2.41Z"/>
  <path class="cls-4" d="m236.67,53.43c6.89-2.55,5.43-2.32,10.27,1.65,1.19.98,2.35,1.99,3.53,2.98,1.02.85,1.39,1.91,1.14,3.23-.51,2.7-.98,5.4-1.46,8.1-.25,1.42-1,2.37-2.41,2.85-2.6.88-5.17,1.84-7.75,2.77-1.25.45-2.37.28-3.39-.59-2.18-1.85-4.46-3.6-6.49-5.6-.69-.69-1.12-2.05-1.03-3.04.26-2.67.9-5.3,1.33-7.95.26-1.64,1.11-2.68,2.72-3.15,1.16-.34,2.28-.79,3.54-1.24Z"/>
  <rect class="cls-3" x="235.36" y="0" width="31.16" height="31.16" rx="14.83" ry="14.83"/>
  <rect class="cls-2" x="277.56" y="35.55" width="10.01" height="10.01" rx="2.17" ry="2.17" transform="translate(77.37 -157.9) rotate(35.87)"/>
  <path class="cls-7" d="m78.21,114.96h13.04s-3.32-31.67-3.32-31.67l-20.09-13.97,4.2,40.05c.32,3.09,3.09,5.59,6.17,5.59Z"/>
  <path class="cls-9" d="m135.96,114.96h13.04c3.09,0,5.33-2.5,5-5.59l-4.2-40.05-17.16,13.97,3.32,31.67Z"/>
  <path class="cls-6" d="m130.09,59.08l2.54,24.22,17.16-13.97-.78-7.45c-.72-6.91-9.02-10.85-14.12-6.71l-4.81,3.91Z"/>
  <path class="cls-10" d="m87.93,83.3l-2.54-24.22,24.11,16.77,20.59-16.77,2.54,24.22-20.59,16.77-24.11-16.77Z"/>
  <path class="cls-8" d="m67.05,61.87l.78,7.45,20.09,13.97-2.54-24.22-5.63-3.91c-5.96-4.14-13.43-.2-12.71,6.71Z"/>
  <rect class="cls-1" x="144.68" y="88.12" width="39.66" height="39.66" rx="19.51" ry="19.51"/>
  <rect class="cls-5" x="148.36" y="107.18" width="20.13" height="4.47" rx="2.23" ry="2.23" transform="translate(123.77 -79.98) rotate(45)"/>
  <rect class="cls-5" x="156.47" y="100.11" width="37.98" height="4.47" rx="2.23" ry="2.23" transform="translate(369.38 41.89) rotate(132.43)"/>
</svg>