<?xml version="1.0" encoding="UTF-8"?>
<svg id="Layer_1" data-name="Layer 1" xmlns="http://www.w3.org/2000/svg" viewBox="0 0 712.3 325.54">
  <defs>
    <style>
      .cls-1 {
        fill: #fff;
      }

      .cls-2 {
        fill: #2e3a52;
      }

      .cls-3 {
        fill: #ed7cf2;
      }

      .cls-4 {
        fill: #fe3229;
      }

      .cls-5 {
        fill: #3785ff;
      }

      .cls-6 {
        fill: #05ad49;
      }

      .cls-7 {
        fill: #fabc06;
      }

      .cls-8 {
        fill: #2a3d5b;
      }

      .cls-9 {
        stroke: #fff;
      }

      .cls-9, .cls-10, .cls-11 {
        fill: none;
        stroke-miterlimit: 10;
        stroke-width: 3px;
      }

      .cls-10 {
        stroke: #2e3a52;
      }

      .cls-11 {
        stroke: #3785ff;
      }
    </style>
  </defs>
  <path class="cls-2" d="m187.43,293.9c-2.19-11.08-4.23-22.19-6.61-33.23-6.88-31.88-13.91-63.72-20.85-95.59-1.59-7.31-.4-9.37,6.87-10.97,44.53-9.83,89.07-19.57,133.61-29.34,23.57-5.17,47.14-10.34,70.72-15.45,7.83-1.7,9.53-.69,11.22,6.98,11.06,50.38,22.07,100.77,33.07,151.16.78,3.57,1.41,7.18,2.09,11.54-3.26,7.05,35.15,33.08-.51,26.73.97,4.62-.34,6.47-.35,11.09-44.85-33.71-93.15-70.39-137.69-103.96-5.08-3.83-7.04-3.38-9.95,2.36-8.88,17.51-17.81,35.01-26.61,52.57-4.99,9.95-9.8,20.14-14.68,30.19-.19.14.03-.07-.33-.27-9.25-7.91-19.19-10-30.41-6.12-3.09,1.07-6.39,1.54-9.59,2.29m185.63-105.2c2.57-10.53-.84-19.3-9.33-24-7.94-4.39-17.62-2.97-24.57,4.43-5.22,5.57-11.05,7.83-18.65,7.34-7.38-.47-12.57,3.42-14.71,9.63-1.97,5.72-.25,11.85,4.44,15.81,4.64,3.93,11.3,4.61,17.23.82,6.34-4.07,12.52-4.25,19.46-1.93,11.49,3.85,20.42-.29,26.13-12.1m-137.56-17.75c-13.79-6.62-27.8-3.84-36.41,7.24-8.2,10.54-8.18,25.52.37,35.56,7.7,9.06,17.63,12.51,29.15,9.49,11.7-3.07,18.93-10.91,20.86-22.94,2.01-12.48-2.9-22.06-13.97-29.34Z"/>
  <rect class="cls-2" x="196.43" y="201.16" width="202.48" height="122.5"/>
  <path class="cls-2" d="m449.56,324.99c-69.63.01-140.17-.2-210.2-.65-.54-9.71-4.09-17.49-10.63-24.2-.28-.42-.26-.65.26-1.1,13.99-27.23,27.68-54.23,41.39-81.23,2.69-5.3,2.79-5.33,7.5-1.78,31.77,23.93,63.5,47.91,95.3,71.81,13.16,9.89,28.28,15.58,41.68,25.66,1.21.63,1.29.22,2.07-.09,2.91-1.15,3.43-.6,6.47-1.7,2.13,7.74,3.69,11,11.65,10.99,4.46,0,9.56-.4,14.1-.07.1.83.39,1.89.42,2.37Z"/>
  <path class="cls-5" d="m187.18,294.2c3.45-1.05,6.75-1.53,9.84-2.6,11.22-3.88,21.74-1.83,30.74,6.39-4.29,9.21-8.92,18.01-13.32,26.71-37.61.04-75.57.03-113.73-.31-.65-.85-.74-1.32-.84-1.79.54-8.27,2.56-16.05,7.32-23,9.28-13.58,25.75-19.32,41.3-13.97,6.12,2.1,11.98,4.96,17.99,7.4,6.65,2.7,13.44,3.8,20.71,1.18Z"/>
  <polygon class="cls-7" points="416.78 280.18 446.28 297.13 589.88 33.3 560.4 16.31 416.78 280.18"/>
  <path class="cls-5" d="m501.86,62.29c-2.07,0-4.14,0-6.21.06-2.57.08-5.13.44-7.7.45-.04,0-.07-.01-.11-.02,0,0-.01,0-.02,0-1.61-.39-2.43-.81-3.26-1.23.13-.34.27-.68.4-1.02,1.49.31,2.98.62,4.46.94.71.08,1.44.05,2.16-.01.09,0,.18-.02.27-.03,0,0,.07,0,.11-.01,3.98-3.01,6.31-6.56,4.07-11.39-2.22-4.79-6.53-5.05-11.08-3.68-1.49-1.84-2.89-3.58-4.97-6.16,3.23-1.25,5.84-2.55,8.6-3.24,3.27-.82,9.45-13.38,7.94-16.39-1.36-2.73-2.53-5.57-3.54-8.45-.84-2.4-13.99-8.22-16.3-7.17-3.08,1.4-7.5,1.74-9.1,4.07-3.11,4.53-7.44,11-6.17,15.08,1.63,5.22,2.15,14.47,11.89,14.06,0,0,.04.59.07,1.11-7,1.13-10.74,5.4-11.3,12.35-6.43,2.28-9,4.88-7.93,9.2.56,2.29,2.4,4.92,4.41,6,1.43.77,3.27.8,5.44.82,0,0,.02,0,.03,0,.07,0,.14-.01.21-.02.04,0,.07,0,.11,0-.04,0-.04,0,.03-.01.12-.04.25-.06.37-.1.24-.06.48-.13.72-.21.11-.04.21-.08.32-.12.02,0,.11-.05.12-.05.06-.03.11-.06.17-.09.06-.03.11-.07.17-.09,0,0,0,0,0,0,.01,0,.02-.02.03-.03.1-.09.21-.16.33-.21,0,0,0,0,0,0,1.04-1.19,2.08-2.38,3.12-3.57.19.55.38,1.1.57,1.64-.91,1.6-1.98,2.29-2.89,3.01-2.66,1.4-4.5,2.37-6.34,3.34-26.87,14.12-40.74,38.21-37.69,66.33,1.82,16.81,9.55,31.28,18.9,45.09,3.79,5.6,6.51,11.91,10,17.73,1.64,2.74,3.94,5.07,6.2,7.52,2.79-1.53,5.21-3.26,7.89-4.41,8.2-3.5,11.66-9.38,10.2-18.15-.49-2.93-1.25-5.82-1.9-8.76,5.41-2.67,5.5-2.8,4.96-7.37-4.09-4.12-8.35-8.08-12.14-12.46-1.09-1.26-.85-3.72-1.12-5.64-.07-.45.2-.96.37-1.43,8.13-23.39,8.36-23.93,36.78-27.8.12-.18.24-.37.35-.56.12-.22.23-.44.33-.67.05-.34.14-.69.23-1,.03-.1.07-.2.1-.31,0-.07.02-.13.04-.19-8.27,1.38-16.55,2.74-24.81,4.17-5.63.98-6.47.32-7.42-5.58-.31-1.93-1.16-3.77-1.78-5.65-1.8-5.47-3.59-10.93-5.42-16.39-.29-.86-.75-1.66-1.15-2.52-.58.32-1.06.42-1.13.64-1.54,5.11-3.84,10.16-4.33,15.37-.53,5.62.26,11.46,1.18,17.09.96,5.87,3.19,11.53,4.06,17.4,1.01,6.83-.61,8.09-6.7,11.38-6.94,3.74-13.41,8.37-20.5,12.88-4.88-8.06-8.41-17.63-10.12-27.82-4.92-29.43,10.67-50.99,31.96-64.13.93-.58,2.66-.85,3.55-.38,9.08,4.86,18.21,3.1,27.12-.01,4.81-1.68,9.55-4.09,13.66-7.09,3.12-2.28,5.86-2.95,9.12-1.51,6.2,2.75,12.31,5.71,18.94,8.62.8-.68,1.11-1.39,1.11-2.29-9.3-6.57-19.32-9.85-30.04-10.91Zm-11.91-13.49c1.81.66,4.01,3.81,3.82,5.61-.34,3.32-3.12,4.86-6.68,3.52-.46-.17-.86-.49-1.28-.74-.5-1.64-.52-2.61-.53-3.58-.02-3.2.89-6.2,4.67-4.81Zm-26.29,56.1c1.81,3.41,3.57,6.71,5.33,10.02,1.32,4.43,2.41,8.11,3.89,13.14-1.43,3.04-3.61,7.67-5.79,12.29-7.95-21.05-8.7-28.39-3.44-35.45Zm-20.6,62.3c4.77-3.28,9.6-6.47,14.48-9.58,3.4-2.17,6.43-2.16,8.62,1.89.62,1.14,1.73,2.01,2.62,3,3.18,3.19,6.04,5.79,8.89,8.39l-1,1.93c-1.56-.58-3.59-.74-4.59-1.84-1.62-1.79-2.56-4.2-3.79-6.34-3.83-1.37-2.74.4-1.9,2.32,2.51,5.76,5.09,11.5,7.25,17.4.82,2.23.59,4.85.41,7.4-2.24-7.5-3.52-15.35-10.26-20.79,3.15,8.38,8.32,16.33,5.58,25.75-3.86-14.68-6.46-19.9-12.82-22.29,5.78,8.75,10.87,16.7,7.62,26.71-2.37-8.33-4.92-16.44-12.18-22.02,3.16,8.26,10.07,15.37,7.25,26.86-1.91-2.63-3.14-4.04-4.05-5.63-4.45-7.75-8.44-15.79-13.35-23.23-2.79-4.23-2.83-7.13,1.22-9.93Zm22.26-103.86c-2.73.47-5.8,1.24-6.77.15-1.21-1.37-1.23-4.41-.69-6.45.26-.99,4.09-2.2,4.34-1.86,1.74,2.36,5.91,4.06,3.12,8.16Zm.02-13.89c.46-2.6,1.4-4.27,4.69-3.26,2.16.66,4.57.65,6.87.64,5.24-.03,7.12,2.34,5.15,7.21-.7,1.73-2.38,3.06-3.61,4.57-8.58,2.41-14.38-2.04-13.1-9.16Zm16.36,25.29c-6.41,1.26-11.9,1.67-17.42-1.44,3.04-3.72,11.21-2.19,8.98-9.93,2.63-.85,4.96-1.61,7.87-2.55,1.14,6.11,5.52,5.14,9.98,4.52,3.25-.45,6.58-.36,10.07.08-5.56,5.13-12.27,7.73-19.48,9.33Z"/>
  <path class="cls-7" d="m31.75,185.96c-5.9,1.34-11.38,2.69-16.9,3.81-5.43,1.1-7.97-.42-9.2-5.59-1.88-7.9-3.66-15.83-5.28-23.79-1.16-5.68.39-8.02,6.02-9.35,7.75-1.84,15.51-3.59,23.31-5.22,5.97-1.25,8.34.33,9.68,6.17,1.74,7.6,3.45,15.2,5.09,22.82,1.27,5.9-.29,8.42-5.97,9.77-2.1.5-4.22.87-6.74,1.39Z"/>
  <path class="cls-5" d="m555.27,102.44c7.45-9.27,4.33-18.5-.14-27.7-1.59-3.28-3.49-6.43-4.89-9.78-1.49-3.6-3.45-7.12,1.55-10.33,2.9-1.86,4.11-6.63,7.06-8.07,6.83-3.33,8.75-2.37,13.84,3.78,1.37,1.66,2.62,3.42,3.62,4.74,1.99-.83,3.82-1.59,5.99-2.37,1.34,2.31,2.79,4.56,3.25,7,.54,2.9.23,5.97.31,8.96.15,5.21,1.13,9.91,4.45,14.4,4.39,5.94,5.75,13.38,4.57,20.5-1.34,8.09-3.13,16.46-6.66,23.77-9.84,20.38-34.27,24.38-51.33,8.74.09-1.06.48-1.83,1.31-2.41,14.83,13.89,36.84,11.8,46.09-5,3.98-7.23,6.19-15.73,7.68-23.94,1.5-8.26-.25-16.47-5.53-22.54-8.2,3.3-15.8,6.35-23.49,9.45-.54,7.88-1.11,16.28-1.68,24.67-.28-.1-.56-.2-.84-.3-1.72-4.52-3.44-9.05-5.15-13.57m10.92-54.42c-.43-.02-.86-.04-1.29-.07.22.46.43.92.86,2.04,8.18,11.75,8.72,12.92,7.3,17.43-3.89-6.98-6.79-14.06-13.54-18.2.97,7.89,8.92,12.87,8.19,21.5-3.65-5.78-7.3-11.56-10.95-17.34-.57.33-1.13.67-1.7,1,3.22,6.16,6.44,12.32,9.67,18.48-.61.34-1.23.68-1.84,1.02-3.3-5.41-6.61-10.82-9.91-16.23-.68.35-1.37.7-2.05,1.06,4.1,9.52,8.21,19.05,12.87,29.88,5.85-2.62,11.88-5.17,17.73-8.09,1.13-.56,2.13-2.58,2.15-3.94.05-5.31-.24-10.63-.58-15.94-.11-1.63-.79-3.23-1.48-5.83-4.41,5.25.94,8.81.36,13.56-5.45-7.07-10.41-13.51-15.78-20.34Z"/>
  <path class="cls-2" d="m542.27,323.59c0-.6.53-.67,1.06-1,46.83.02,93.51.06,140.11.1,7.99,0,15.98-.01,23.97.01,1.6,0,3.19.17,4.79.26.03.42.07.84.1,1.26-1.27.18-2.55.53-3.82.53-53.9.03-119.71.62-173.61.59-1.29,0,5.97-2.5,7.41-1.75Z"/>
  <path class="cls-5" d="m229.27,300.14c6.42,6.55,10.09,14.48,10.16,24.17-7.22.44-14.85.37-22.38-.05,3.69-8.29,8.14-16.25,12.22-24.12Z"/>
  <path class="cls-2" d="m99.44,322.61c.54.46.64.93.81,1.76-27.56.35-55.2.35-82.84.35,0-.7,0-1.4,0-2.1,27.2,0,54.4,0,82.03,0Z"/>
  <path class="cls-3" d="m92.23,212.52c-1.52-5.52-.1-8.96,3.85-9.77,3.25-.67,5.93.29,7.47,3.42,1.54,3.13.74,5.91-1.92,7.94-3.35,2.54-6.48,1.78-9.4-1.59Z"/>
  <path class="cls-2" d="m500.98,325.49c-.28-.75,0-1.45.74-2.52,10.7-.34,21.31-.71,31.47-.7.42.75,1.09,2.02,1.6,3.08-10.79.31-22.44.16-33.81.14Z"/>
  <path class="cls-5" d="m228.5,298.93s-.05-.08-.08-.11c0,0,0,0,0,0-.01-.02-.03-.04-.04-.05-.06-.08-.13-.15-.2-.23-.14-.16-.28-.34-.4-.52-.05.02-.12.09-.23.24-4.65,9.01-9.06,17.71-13.1,26.46,1.07,0,1.78-.05,2.61-.44,4.18-8.22,8.25-16.09,12.22-24.12-.05-.08-.09-.15-.12-.21-.22-.33-.43-.67-.65-1Z"/>
  <path class="cls-5" d="m235.81,171.15c10.76,7.08,15.67,16.67,13.66,29.15-1.94,12.03-9.17,19.87-20.86,22.94-11.52,3.02-21.45-.43-29.15-9.49-8.54-10.04-8.57-25.02-.37-35.56,8.61-11.07,22.62-13.86,36.73-7.04m-8.65,49.58c16-4.74,23.8-19.26,18.29-34.08-5.16-13.9-21.42-20.38-35.06-13.98-11.15,5.23-17.03,18.33-13.55,30.17,3.77,12.81,15.26,19.85,30.32,17.89Z"/>
  <path class="cls-5" d="m515.7,103.63c-3.65-6.64-7.04-13.39-10.44-20.14.71-.38,1.42-.76,2.13-1.14,3.1,5.89,6.2,11.79,9.56,17.97-.16,1.26-.58,2.23-1.25,3.32Z"/>
  <path class="cls-8" d="m468.06,163.97c-3.6-.71-2.52,1.06-1.68,2.98,2.51,5.76,5.09,11.5,7.25,17.4.82,2.23.59,4.85.41,7.4-2.24-7.5-3.52-15.35-10.26-20.79,3.15,8.38,8.32,16.33,5.58,25.75-3.86-14.68-6.46-19.9-12.82-22.29,5.78,8.75,10.87,16.7,7.62,26.71-2.37-8.33-4.92-16.44-12.18-22.02,3.16,8.26,10.07,15.37,7.25,26.86-1.91-2.63-3.14-4.04-4.05-5.63-4.45-7.75-8.44-15.79-13.35-23.23-2.79-4.23-2.83-7.13,1.22-9.93,4.77-3.28,9.6-6.47,14.48-9.58,3.4-2.17,6.43-2.16,8.62,1.89.62,1.14,1.73,2.01,2.52,3.5-.27.66-.44.81-.61.96Z"/>
  <path class="cls-8" d="m481.27,74.8c-5.99,1.2-11.47,1.6-16.99-1.51,3.04-3.72,11.21-2.19,8.98-9.93,2.63-.85,4.96-1.61,7.87-2.55,1.14,6.11,5.52,5.14,9.98,4.52,3.25-.45,6.58-.36,10.07.08-5.56,5.13-12.27,7.73-19.9,9.39Z"/>
  <path class="cls-8" d="m478.43,58.61c-8.37,2.38-14.54-1.92-13.1-9.16.46-2.6,1.4-4.27,4.69-3.26,2.16.66,4.57.65,6.87.64,5.24-.03,7.12,2.34,5.15,7.21-.7,1.73-2.03,2.86-3.61,4.57Z"/>
  <path class="cls-8" d="m468.84,163.3c3.12,2.39,5.97,4.99,8.82,7.58-.33.64-.67,1.28-1,1.93-1.56-.58-3.59-.74-4.59-1.84-1.62-1.79-2.56-4.2-3.9-6.67.06-.48.23-.64.67-1Z"/>
  <path class="cls-8" d="m566.19,48.02c4.97,6.44,10.33,13.27,15.78,20.34.58-4.75-4.77-8.31-.36-13.56.68,2.61,1.37,4.2,1.48,5.83.35,5.31.63,10.63.58,15.94-.01,1.36-1.02,3.38-2.15,3.94-5.85,2.92-11.89,5.47-17.73,8.09-4.67-10.83-8.77-20.35-12.87-29.88l2.05-1.06c3.31,5.42,6.62,10.83,9.93,16.25,1.18-.67.65-.37,1.83-1.04-3.22-6.16-6.44-12.32-9.67-18.48l1.71-.99c3.65,5.77,7.29,11.55,10.94,17.32.73-8.62-7.22-13.6-8.19-21.5,6.75,4.13,9.65,11.21,13.54,18.2,1.42-4.52.72-5.13-7.3-17.43-1.37-2.04-1.04-2.83.43-1.98Z"/>
  <path class="cls-2" d="m226.73,220.8c-14.63,1.88-26.11-5.15-29.88-17.96-3.49-11.84,2.4-24.94,13.55-30.17,13.64-6.4,29.9.08,35.06,13.98,5.51,14.82-2.29,29.34-18.73,34.15Z"/>
  <polygon class="cls-7" points="415.17 318.75 446.28 297.13 416.78 280.18 415.17 318.75"/>
  <polygon class="cls-7" points="503.68 122.41 502.9 121.96 504.62 118.8 505.48 119.3 503.68 122.41"/>
  <polygon class="cls-7" points="514.93 101.75 514.14 101.3 515.86 98.14 516.72 98.64 514.93 101.75"/>
  <polygon class="cls-7" points="515.8 103.91 513.86 102.79 516.02 98.6 518.16 99.83 515.8 103.91"/>
  <polygon class="cls-7" points="529.33 75.3 528.54 74.85 530.26 71.69 531.12 72.19 529.33 75.3"/>
  <polygon class="cls-7" points="530.2 77.47 528.26 76.35 530.42 72.15 532.55 73.39 530.2 77.47"/>
  <path class="cls-5" d="m532.29,144.17c.47-1.15.94-2.29,1.67-3.61,4.8,11,5.38,22.78,5.57,34.6.1,6.15-.16,12.31-.15,18.46.02,8.64,2.89,16.04,10.09,21.22,8.78,6.32,13.72,15.06,17.05,25.11,3.33,10.06,6.29,20.43,16.26,27.63-5.49,3.38-10.38,6.39-15.61,9.61,3.9,6.51,7.53,13.01,11.6,19.21,2.24,3.41,1.7,5.26-1.89,6.82-2.25.98-4.31,2.37-6.91,3.83-1.16-1.43-2.17-2.68-3.34-4.11-4,10.76-14.28,13.65-22.95,19.36-.79.6-1.1.91-1.4,1.22-2.37.75-4.74,1.49-7.48,1.81-.79-1.18-1.21-1.93-1.6-3.08.51-2.29.43-4.67,1.58-5.97,3.05-3.46,2.21-6.56.3-10.01-6.45-11.64-12.8-23.33-19.23-34.98-.41-.74-1.13-1.31-1.7-1.96-.3.12-.59.23-.89.35,1.36,9.5,2.73,19,4.2,29.25h-15.62c0,8.39,0,16.03-.1,24.02-.32,1.08-.17,1.8-.39,2.52-4.64-.63-9.5-.27-14.26-.5-1.28-.15-2.65-.06-3.96,0-11.07.47-22.13-.24-33.56,0-.39-.7-.42-1.18-.42-2.37,1.65-2.82,2.87-5.69,5.01-6.86,3.05-1.66,4.61-3.56,4.56-6.92-.15-10.96-.3-21.91-.45-32.87.74-1.45,1.49-2.89,2.55-4.19.33,8.04.33,15.93.33,24.11h52.55c-.88-9.74-1.64-19.13-2.61-28.5-.3-2.88-.6-5.97-1.84-8.52-7.7-15.91-12.59-32.5-13.1-50.26.77-1.5,1.53-3,2.51-4.27.53,5.37.61,10.56,1.22,15.67,3.36,28,19.38,50.55,32.03,75.05,15.45-9.28,30.52-18.33,45.96-27.6-7.3-7.24-10.67-16.12-13.44-25.2-3.26-10.68-8.7-19.65-17.83-26.38-5.92-4.36-9.24-10.52-9.5-17.94-.4-11.47-.12-22.98-.93-34.41-.46-6.51-2.53-12.9-3.87-19.35m-44.17,177.35c-.38-.05-.77-.11-1.15-.16-.04.39-.07.78-.11,1.17.4-.05.81-.1,1.25-1.01Z"/>
  <rect class="cls-5" x="485.8" y="320.48" width="3.35" height="2.46"/>
  <path class="cls-5" d="m688.85,178.13c-1.67,3.78-4.4,6.6-8.09,8.35-5.24,2.48-8.25,6.21-9.24,11.59-.69,3.74-2.8,6.73-6.62,8.52-4.92,2.3-10.66,1.38-14.01-2.3-3.37-3.71-3.56-9.44-.35-13.62.91-1.18,1.95-2.3,3.07-3.31,3.02-2.72,4.45-5.9,4.18-9.76-.12-1.81-.07-3.65.11-5.47.89-8.95,9.5-15.39,18.86-14.16,9.15,1.2,15.05,9.58,12.77,18.15-.17.64-.41,1.26-.67,2.02m-11.58-17.41c-9.04-1.42-16.28,4.08-16.72,12.75-.07,1.37-.07,2.74.01,4.1.26,4.45-1.35,8.22-4.84,11.4-1.12,1.01-2.2,2.11-3.04,3.33-2.1,3.04-2.39,6.21-.4,9.24,1.95,2.97,4.99,4.13,8.68,3.58,3.71-.55,6.26-2.63,7.4-6.07.5-1.51.88-3.05,1.33-4.58,1.08-3.68,3.33-6.55,6.85-8.54,1.15-.65,2.31-1.3,3.45-1.97,5.17-3.05,7.83-7.35,7.11-12.97-.68-5.35-4.09-8.68-9.83-10.26Z"/>
  <path class="cls-4" d="m675.74,212.72v.23c-.08,9.96-12.3,14.79-19.37,7.77l-27.6-27.44h.01c4.98-4.99,11.86-8.07,19.45-8.07,2.3,0,4.53.28,6.67.82.94.23,1.87.51,2.77.84,3.8,1.39,7.21,3.59,10.01,6.4.63.63,1.22,1.28,1.79,1.96.74.91,1.43,1.86,2.04,2.85,2.68,4.24,4.23,9.26,4.23,14.64Z"/>
  <path class="cls-1" d="m669.47,195.23c-.36,1.27-.69,2.55-1.11,3.81-1.14,3.45-3.69,5.52-7.4,6.07-3.69.55-6.73-.61-8.68-3.58-1.99-3.03-1.71-6.19.4-9.24.84-1.21,1.92-2.31,3.04-3.32.74-.67,1.39-1.37,1.95-2.1-.9-.33-1.83-.61-2.77-.84-.39.45-.82.89-1.3,1.32-1.12,1.01-2.16,2.13-3.07,3.31-3.21,4.18-3.03,9.91.35,13.62,3.35,3.68,9.08,4.6,14.01,2.3,3.8-1.78,5.92-4.77,6.62-8.5-.61-.99-1.3-1.94-2.04-2.85Z"/>
  <rect class="cls-6" x="88.6" y="0" width="64.97" height="64.97" rx="32.49" ry="32.49"/>
  <path class="cls-10" d="m109.4,34.38l-59.74,21.37c-3.81,1.36-4.71,6.34-1.63,8.96l48.38,41.05c3.08,2.62,7.85.91,8.57-3.07l11.36-62.42c.72-3.98-3.13-7.25-6.94-5.89Z"/>
  <path class="cls-9" d="m112.07,63.71l4.27-23.44c.72-3.98-3.13-7.26-6.94-5.89l-19.57,7"/>
  <rect class="cls-7" x="429.66" y="271.53" width="4.72" height="32.61" transform="translate(-33.27 518.06) rotate(-60)"/>
  <rect class="cls-2" x="295.83" y="151.36" width="86.73" height="66.04"/>
  <line class="cls-11" x1="217.05" y1="262.41" x2="373.9" y2="232.07"/>
  <line class="cls-11" x1="280.54" y1="276.48" x2="380.03" y2="257.23"/>
</svg>