<?xml version="1.0" encoding="UTF-8"?>
<svg id="Layer_1" data-name="Layer 1" xmlns="http://www.w3.org/2000/svg" viewBox="0 0 193.3 168.19">
  <defs>
    <style>
      .cls-1 {
        fill: #2e3a52;
      }

      .cls-2 {
        fill: #cddcf1;
      }

      .cls-3 {
        fill: #fe3229;
      }

      .cls-4 {
        stroke: #3785ff;
      }

      .cls-4, .cls-5 {
        fill: none;
        stroke-miterlimit: 10;
        stroke-width: 2px;
      }

      .cls-6 {
        fill: #05ad49;
      }

      .cls-7 {
        fill: #fabc06;
      }

      .cls-5 {
        stroke: #cddcf1;
      }

      .cls-8 {
        fill: #6493d4;
      }
    </style>
  </defs>
  <rect class="cls-1" x="49.2" y="48.79" width="94.17" height="94.17" rx="47.09" ry="47.09"/>
  <rect class="cls-4" x="40.79" y="40.39" width="110.98" height="110.98" rx="55.49" ry="55.49"/>
  <rect class="cls-7" x="132.15" y="144.88" width="13.95" height="13.95" rx="6.97" ry="6.97"/>
  <path class="cls-6" d="m62.31,20.32l-5.46,3.15c-.79.46-1.28,1.3-1.28,2.22v6.3c0,.91.49,1.76,1.28,2.22l5.46,3.15c.79.46,1.77.46,2.56,0l5.46-3.15c.79-.46,1.28-1.3,1.28-2.22v-6.3c0-.91-.49-1.76-1.28-2.22l-5.46-3.15c-.79-.46-1.77-.46-2.56,0Z"/>
  <rect class="cls-3" x="17.64" y="16.49" width="24.7" height="24.7" rx="3" ry="3"/>
  <path class="cls-5" d="m23.14,16.49l1.05,4.81c.36,1.67-1.07,3.2-2.77,2.94l-3.78-.57"/>
  <path class="cls-4" d="m17.64,23.67l-14.31-2.15c-1.96-.29-2.78-2.66-1.43-4.1L16.11,2.26c1.35-1.45,3.77-.78,4.19,1.15l2.84,13.08"/>
  <path class="cls-2" d="m166.85,168.19c-1.57-1.13-3.34-2.56-5.11-4.3-3.22-3.15-4.78-6.13-4.91-9.03-.16-2.93.9-5.81,3.65-8.62,2.77-2.83,5.91-4.29,9.09-4.3,3.21-.04,6.74,1.71,10.11,5.01,1.6,1.56,2.86,2.95,3.86,4.18l-16.69,17.06Zm12.76-17.52c-.47-.66-1.26-1.49-2.14-2.34-4.79-4.68-10-4.55-14.58.13-4.03,4.07-4.25,8.93.48,13.56,1.16,1.13,2.13,1.89,2.85,2.34l13.39-13.69Z"/>
  <path class="cls-8" d="m88.97,113.54l.09,12.67c0,.71.59,1.29,1.3,1.28s1.29-.59,1.28-1.3l-.09-12.67-2.58.02Z"/>
  <path class="cls-8" d="m112.93,76.51l-1.84-1.81,8.78-8.91,1.84,1.81-8.78,8.91Z"/>
  <path class="cls-2" d="m94.19,121l-7.74.06c-.71,0-1.29.59-1.28,1.3s.59,1.29,1.3,1.28l7.74-.06c.71,0,1.29-.59,1.28-1.3,0-.71-.59-1.29-1.3-1.28Z"/>
  <path class="cls-2" d="m104.37,100.27c-.04-6.12-3.96-11.3-9.41-13.25.12.88.03,1.8-.27,2.65,1.34.57,2.57,1.38,3.63,2.43,2.21,2.18,3.44,5.09,3.46,8.19.02,3.11-1.16,6.03-3.34,8.24-2.18,2.21-5.09,3.44-8.19,3.46-3.1.02-6.03-1.16-8.24-3.34-2.21-2.18-3.44-5.09-3.46-8.19-.02-3.1,1.16-6.03,3.34-8.24,1.06-1.08,2.3-1.92,3.65-2.51-.27-.87-.29-1.82-.1-2.72-5.55,1.96-9.52,7.26-9.47,13.48.06,7.85,6.46,14.16,14.31,14.1,7.84-.06,14.16-6.46,14.1-14.31Z"/>
  <path class="cls-2" d="m112.75,74.85c-2.79-2.75-6.44-4.11-10.07-4.09-3.64.03-7.26,1.44-10.01,4.23-5.51,5.59-5.44,14.58.15,20.08,1.35,1.33,2.9,2.32,4.55,3-.05-.89.12-1.79.48-2.6-1.18-.55-2.26-1.3-3.22-2.24-2.21-2.18-3.44-5.09-3.46-8.19-.02-3.11,1.16-6.03,3.34-8.24,2.18-2.21,5.09-3.44,8.19-3.46,3.1-.02,6.03,1.16,8.24,3.34,2.21,2.18,3.44,5.09,3.46,8.19.02,3.1-1.16,6.03-3.34,8.24-1.21,1.23-2.65,2.16-4.23,2.74.26.86.29,1.79.11,2.68,2.19-.67,4.24-1.86,5.96-3.61,5.5-5.59,5.44-14.58-.15-20.08Z"/>
  <path class="cls-2" d="m122.24,71.73s0-.03,0-.04h0s-.04-5.12-.04-5.12c0-.71-.59-1.29-1.3-1.28h0s-5.12.04-5.12.04h0s-.03,0-.04,0c-.71,0-1.29.59-1.28,1.3s.59,1.29,1.3,1.28c.02,0,.03,0,.04,0h0s3.83-.03,3.83-.03l.03,3.83h0s0,.03,0,.04c0,.71.59,1.29,1.3,1.28s1.29-.59,1.28-1.3Z"/>
</svg>